<?xml version="1.0" encoding="UTF-8"?> <!-- Generator: Adobe Illustrator 22.0.0, SVG Export Plug-In . SVG Version: 6.00 Build 0) --> <svg xmlns="http://www.w3.org/2000/svg" xmlns:xlink="http://www.w3.org/1999/xlink" version="1.1" id="Layer_1" x="0px" y="0px" viewBox="0 0 910 120" style="enable-background:new 0 0 910 120;" xml:space="preserve"> <style type="text/css"> .st0{clip-path:url(#SVGID_2_);} .st1{clip-path:url(#SVGID_4_);} .st2{clip-path:url(#SVGID_6_);} .st3{clip-path:url(#SVGID_8_);} .st4{clip-path:url(#SVGID_10_);} .st5{clip-path:url(#SVGID_12_);} </style> <g> <defs> <rect id="SVGID_1_" x="131.1" y="29.1" width="97.7" height="44"></rect> </defs> <clipPath id="SVGID_2_"> <use xlink:href="#SVGID_1_" style="overflow:visible;"></use> </clipPath> <g class="st0"> <path d="M162.7,29.8v1.8h-8.3v6.3h6.5v1.8h-6.5v8h-2.2V29.8H162.7z"></path> <path d="M168.4,33.6l-3.1-0.7l0.6-1.7l3,1.2l-0.2-3.4h1.8l-0.2,3.4l2.9-1.2l0.6,1.7l-3.1,0.7l2.1,2.8l-1.4,1l-1.9-3l-1.8,3l-1.5-1 L168.4,33.6z"></path> <path d="M175.9,38.9v-0.2c0-5.3,3.5-9.2,8.5-9.2c3.7,0,6.9,2,7.3,5.9h-2.2c-0.5-2.7-2-4.1-5.1-4.1c-3.7,0-6.2,2.9-6.2,7.4v0.2 c0,4.6,2.3,7.3,6.2,7.3c2.9,0,5-1.5,5.4-4.4h2c-0.6,4.1-3.5,6.2-7.5,6.2C179.1,47.9,175.9,44.4,175.9,38.9z"></path> <path d="M197.7,29.8v8.6l7.8-8.7h2.4l-8,8.7l8.4,9.2h-2.6l-8-8.8v8.8h-2.2V29.8H197.7z"></path> <path d="M136.2,54.9c3.4,0,6.3,1.5,6.3,5.2v0.1c0,3.8-2.9,5.3-6.3,5.3h-2.9v7.3h-2.2V54.9H136.2z M140.3,60.2v-0.1 c0-2.5-1.5-3.5-3.9-3.5h-3.1v7.1h3.1C138.9,63.8,140.3,62.5,140.3,60.2z"></path> <path d="M148.2,54.9V71h8.2v1.8H146V54.9H148.2z"></path> <path d="M167.4,54.9l6.1,17.9h-2.2l-1.8-5.2h-7.4l-1.7,5.2h-2.1l6.2-17.9H167.4z M169,65.9l-3.1-9.2l-3.1,9.2H169z"></path> <path d="M175.6,67.3h2.1c0.3,2.1,1.2,3.9,4.8,3.9c2.3,0,4.1-1.4,4.1-3.4c0-2-0.9-2.9-4.4-3.4c-3.8-0.6-6-1.7-6-4.9 c0-2.7,2.4-4.9,5.8-4.9c3.6,0,5.8,1.7,6.2,4.9h-2c-0.4-2.3-1.7-3.2-4.2-3.2c-2.5,0-3.7,1.2-3.7,2.9c0,1.7,0.7,2.7,4.3,3.2 c4,0.6,6.1,1.9,6.1,5.2c0,3-2.6,5.3-6.2,5.3C177.6,73,175.9,70.4,175.6,67.3z"></path> <path d="M190.5,56.6v-1.8h12.7v1.8H198v16.2h-2.2V56.6H190.5z"></path> <path d="M208.8,54.9v17.9h-2.2V54.9H208.8z"></path> <path d="M212.9,63.9v-0.2c0-5.3,3.5-9.2,8.5-9.2c3.7,0,6.9,2,7.3,5.9h-2.2c-0.5-2.7-2-4.1-5.1-4.1c-3.7,0-6.2,2.9-6.2,7.4v0.2 c0,4.6,2.3,7.3,6.2,7.3c2.9,0,5-1.5,5.4-4.4h2c-0.6,4.1-3.5,6.2-7.5,6.2C216.1,73,212.9,69.5,212.9,63.9z"></path> </g> </g> <g> <defs> <rect id="SVGID_3_" x="302.9" y="0.9" width="42" height="104.3"></rect> </defs> <clipPath id="SVGID_4_"> <use xlink:href="#SVGID_3_" style="overflow:visible;"></use> </clipPath> <g class="st1"> <path d="M337.1,105.2c-4.7,0-20.7-1.2-21.9-1.7c-0.1-0.3-0.2-0.6-0.2-0.9c0,0-0.7-2.4-0.8-2.9l-0.5-1.7c-0.3-1-0.6-2.1-0.9-3.1 c-0.2-0.7-0.4-1.3-0.6-2c-0.1-0.3-0.4-1.3-0.4-1.3c-0.1-0.4-0.2-0.8-0.4-1.2c-0.2-0.7-0.4-1.3-0.6-2c-0.4-1.3-0.7-2.6-1.1-3.9 c-0.4-1.3-0.8-2.7-1.1-4.1c-0.2-0.8-0.4-1.6-0.6-2.5c-0.2-0.7-0.4-1.4-0.6-2c-0.1-0.4-0.3-0.8-0.4-1.3c-0.9-3-1.7-6.1-2.3-9.2 c-0.3-1.7-0.5-3.3-0.6-4.9c0-0.9,0-1.8-0.1-2.7v-0.2c0-1.1,0-2.3-0.1-3.4c-0.1-2.2-0.1-4.1-0.2-5.9c0-0.6-0.1-1.3-0.1-1.9 c0-0.4-0.1-0.9-0.1-1.3c0-0.7-0.1-1.3-0.1-2l-0.1-2c-0.1-1.1-0.1-2.3-0.2-3.4c-0.1-2.3-0.1-4.4-0.2-6.3c0-1.4,0-3,0-4.8 c0-0.9,0.1-1.8,0.1-2.7c0-0.5,0.1-1,0.1-1.5c0-0.3,0-0.5,0-0.8c0-0.4,0-0.6,0-0.9c0-0.2,0-0.4,0-0.6c0-0.2,0-0.3,0-0.5 c0.1-0.7,0.1-1.5,0.2-2.2c0.1-1,0.2-1.7,0.5-2.4c0.3-0.6,0.6-0.9,1-1.1c0.3-0.1,0.6-0.2,0.9-0.2c0.4,0,0.8,0.1,1.1,0.4 c0.7,0.5,1.1,1.2,1.3,2.1l0.1,0.6c0.1,0.5,0.2,1,0.3,1.5c0.1,1.1,0.2,2,0.2,2.9c0,0.8,0.1,1.6,0.2,2.3c0,0.3,0.1,0.5,0.1,0.8 c0,0.5,0.1,1,0.1,1.4c0.1,0.6,0.1,1.3,0.2,1.9c0.1,1,0.2,1.9,0.4,2.9l0.2,1.4c0.1,0.8,0.2,1.7,0.3,2.5c0.2,1.1,0.3,2.2,0.6,3.6 c0,0.1,0,0.2-0.1,0.4c-0.4,0.8-0.7,1.7-0.8,2.6c-0.1,1.1-0.1,2.2,0,3.4l0,0.6c0,0.7,0.1,1.4,0.2,2.1c0.1,0.8,0.3,1.7,0.4,2.5 c0.1,0.8,0.2,1.5,0.4,2.2c0.2,1.6,0.6,3.2,1,4.7c0.1,0.6,0.3,1.1,0.4,1.7c0.2,1.1,0.5,2,0.7,2.9c0.1,0.5,0.3,0.9,0.5,1.3 c0.1,0.1,0.1,0.3,0.2,0.4c0.3,0.8,0.7,1.7,1.3,2.5c0.7,0.9,1.6,1.5,2.6,1.7c0.2,0,0.4,0.1,0.7,0.1c0.5,0,1.1-0.1,1.6-0.4 c0.6-0.3,1.1-0.6,1.7-0.9c0.1-0.1,0.1-0.1,0.2-0.1c0,0,0.1,0,0.1,0c0.5,0.2,1,0.4,1.7,0.5c0.2,0,0.3,0,0.5,0c1,0,1.8-0.3,2.7-1 c1-0.8,1.7-1.8,2-3.2c0.1-0.3,0.1-0.6,0.2-0.9c0.1-0.4,0.2-0.8,0.3-1.1c0-0.1,0-0.1,0-0.2c0.1,0.2,0.3,0.4,0.4,0.6 c0.3,0.4,0.5,0.8,0.8,1.1c0.4,0.7,0.8,1.3,1,2c0.2,0.6,0.6,1.1,1,1.6c0.1,0.1,0.2,0.3,0.3,0.4c0.3,0.4,0.6,0.8,1,1.2 c0,0,0.1,0.1,0.1,0.1c0,0,1.3,1,1.8,1.4c0.1,0.1,0.2,0.2,0.4,0.2c0,0,0.1,0,0.1,0c0.1,0,0.3,0,0.4-0.1c0.1-0.1,0.1-0.2,0.1-0.3 c0-0.1-0.1-0.3-0.2-0.4l-0.4-0.3c-0.4-0.3-0.7-0.6-1.1-0.9c-0.4-0.3-0.8-0.6-1.1-1l-0.3-0.5c-0.3-0.4-0.6-0.8-0.9-1.2 c-0.1-0.1-0.1-0.2-0.2-0.4c0-0.1-0.1-0.2-0.1-0.2l-0.3-0.5c-0.2-0.5-0.5-1-0.8-1.4c-0.2-0.3-0.4-0.6-0.6-0.9 c-0.2-0.2-0.3-0.5-0.5-0.7c-0.4-0.6-0.7-1.1-1-1.7c-0.6-1.3-1.6-2.3-3.1-2.8c-1.7-0.7-3.5-1.4-5.2-2.4c-0.6-0.4-1-0.7-1.4-1 c-1.5-1.3-2.6-2.6-3.5-4c-0.3-0.5-0.6-1.1-0.8-1.8c-0.1-0.4-0.1-0.8,0.1-1.4c0.2-0.5,0.4-1.1,0.8-1.6l0.1,0.1 c0.2,0.2,0.5,0.3,0.7,0.5c1.1,0.9,2.4,1.6,3.5,2.2c0.6,0.3,1.2,0.6,1.9,0.9c0.3,0.1,0.6,0.2,0.8,0.2c0.1,0,0.3,0.1,0.4,0.1 c0.1,0,0.1,0,0.2,0c0.3,0,0.5-0.2,0.5-0.4c0.2-0.7,0.4-1.4,0.6-2.1c0-0.1,0.1-0.2,0.1-0.3c0.8,0.2,1.6,0.3,2.4,0.4 c0.5,0,1.6,0.1,1.6,0.1c0.6,0,1.3,0.1,2,0.1c0.9,0.1,1.7,0.4,2.4,1.1c0.8,0.7,1.4,1.6,2.1,2.7c0.2,0.3,0.3,0.6,0.5,0.8 c0.3,0.5,0.6,1,0.9,1.5c0.4,0.6,0.8,1.3,1.3,1.8c0.3,0.4,0.6,0.7,1,1l0.1,0.1c0.3,0.3,0.6,0.6,0.9,0.8c0.4,0.3,0.7,0.7,1.1,1.2 l0.1,0.1c0.7,0.9,1.4,1.8,2,2.8c0.6,1,0.9,2,1.1,2.9c0.2,1,0.2,2,0.1,3l0,0.6c0,1.4-0.2,2.7-0.5,4l0,0.2c-0.2,0.7-0.3,1.5-0.5,2.3 c-0.3,1-0.5,1.9-0.8,2.9c-0.4,1.3-0.7,2.5-1,3.7c-0.2,0.7-0.3,1.4-0.5,2.1c0,0-0.1,0.6-0.2,0.9l-0.2,1.1c-0.2,0.9-0.4,1.8-0.5,2.6 c-0.2,0.9-0.3,1.9-0.5,2.8l-0.2,1.4l-0.2,1.3c-0.2,0.9-0.3,1.7-0.5,2.6c-0.1,0.8-0.2,1.5-0.3,2.3l-0.1,1.1c0,0.2,0,0.3-0.1,0.5 c-0.1,0.6-0.2,1.1-0.2,1.7c0,0.2,0,0.4-0.1,0.6l0,0.1c-0.2,1.4-0.3,2.9-0.2,4.7c0,0.1,0,0.2,0,0.3 C337.9,105.1,337.7,105.2,337.1,105.2z"></path> <path d="M339.2,52.3c-0.2-0.2-0.4-0.5-0.6-0.7c-0.4-0.5-0.8-1.2-1.2-1.9c-0.6-1.1-1.4-2.2-2.1-3.2c-0.7-1-1.6-1.7-2.6-2 c-0.5-0.2-1.1-0.3-1.9-0.4h0v-0.1c0-0.4,0-0.6,0-0.9c0.1-1.1,0-2.2-0.2-3.5c-0.1-0.8-0.2-1.5-0.2-2.2c0-2.1,0-4.4,0.2-7 c0-0.4,0-0.8,0-1.3c0-0.2,0-0.5,0-0.7c0-0.4,0-0.7,0-1.1c0,0,0.2-7.5,0.2-8.1c0-0.6,0-1.3,0-1.9c0-1.3,0-2.7,0.1-4.1 c0.1-1.7,0.2-3,0.5-4.1c0-0.1,0-0.3,0.1-0.4c0-0.1,0-0.2,0-0.3c0.1-0.4,0.1-0.9,0.2-1.3c0.2-1.1,0.3-2.2,0.6-3.3 c0.1-0.5,0.3-1,0.5-1.4c0.4-0.8,1.1-1.3,2-1.4c0.2-0.1,0.4-0.1,0.7-0.1c0.1,0,0.2,0,0.2,0c0.6,0,1,0.3,1.3,0.9 c0.2,0.4,0.4,0.8,0.6,1.3c0.6,1.7,0.6,3.4,0.7,5.2c0,0.6,0,1.1,0,1.7c0,1.2,0,2.5,0,3.7c0,1,0.1,1.9,0.2,2.8 c0,0.4,0.1,0.7,0.1,1.1c0,0.3,0,0.5,0.1,0.8c0,0.5,0.1,1,0.1,1.5c0.1,2.3,0.2,5.3,0.3,8.3c0,0.7,0,1.5,0,2.2v0.1 c0,0.6,0,1.2,0,1.8c0,0.6,0,1.2-0.1,1.8c0,0.4-0.1,0.8-0.1,1.2c0,0.6,0,1.1,0,1.7c0,0.4,0,0.8,0,1.2c0,0.5,0,1-0.1,1.5 c0,0.6-0.1,1.3-0.1,2l0,0.7c0,1.5-0.1,3,0,4.6c0,0.2,0,0.5,0,0.7c0,0.2,0,0.4,0,0.6L339.2,52.3z"></path> <path d="M318.6,66.4c-0.5,0-1-0.1-1.5-0.3c-0.4-0.1-0.7-0.4-1-0.8c-0.6-0.7-1-1.6-1.3-2.4c-0.5-1.3-1-2.6-1.2-4 c-0.2-0.8-0.4-1.7-0.5-2.4c-0.2-0.9-0.4-1.8-0.6-2.7c-0.1-0.7-0.2-1.3-0.3-2c-0.1-0.4-0.1-0.7-0.2-1.1c-0.1-0.4-0.1-0.8-0.2-1.2 c-0.1-0.8-0.3-1.6-0.4-2.4c-0.3-2.2-0.3-4-0.1-5.6c0.1-0.8,0.2-1.4,0.5-2c0.3-0.6,0.7-1.1,1.3-1.4c0.2-0.1,0.5-0.1,0.7-0.2 c0.3,0,0.5,0,0.8,0c0.9,0,1.6,0.1,2.3,0.5c0.4,0.2,0.7,0.4,0.9,0.7c0.4,0.5,0.8,1,1.2,1.6c0.2,0.3,0.3,0.6,0.3,0.9 c-0.2-0.1-0.5-0.1-0.7-0.1c-0.5,0-1,0.1-1.5,0.4c-1.1,0.6-1.8,1.5-2.1,2.8c-0.1,0.4-0.2,0.8-0.2,1.2c0,0.6,0.1,1.2,0.3,1.8 c0.4,1.2,1.2,2.2,2,3.1c0.8,1,1.7,1.9,2.7,2.7c0.1,0,0.1,0.1,0.1,0.2v0.1c0,0.9-0.1,1.9-0.1,2.8c0,0.6,0,1.3,0,1.9l0,0.9l-3.4,0.7 c-0.3,0.1-0.6,0.1-0.9,0.2c-0.4,0.1-0.6,0.4-0.5,0.9c0.2,0.8,0.5,1.5,0.8,2.2c0.4,0.8,0.9,1.4,1.7,2c0.6,0.5,1.3,0.6,1.9,0.6h0.2 c0.1,0,0.2,0,0.3,0c0.1,0,0.2,0,0.2,0c0.4,0,0.8-0.2,1.1-0.3l0.1,0.1c-0.2,0.1-0.4,0.2-0.6,0.3c-0.1,0-0.2,0.1-0.3,0.1 C319.6,66.3,319.1,66.4,318.6,66.4z"></path> <path d="M329.6,44.1c-0.4,0-0.7,0-1.1-0.1c-1.5-0.1-2.9-0.5-4.3-0.9l-0.2-0.1c-0.9-0.3-1.7-0.5-2.6-0.8l-1-0.3 c-0.1-0.4-0.1-0.6-0.1-0.9c0.3-1.2,0.7-2.2,1.2-3.2c0.4-0.7,0.9-1.2,1.7-1.5c0.7-0.3,1.4-0.5,2.2-0.5c0.7,0,1.4,0.1,2.2,0.4 c0.4,0.1,0.7,0.4,1,0.8l0.1,0.1c0.5,0.6,0.7,1.3,0.8,2c0.1,0.7,0.2,1.5,0.3,2.2l0.1,0.5c0,0.2,0,0.4,0,0.7c0,0.4,0,0.9,0,1.3 l0,0.3L329.6,44.1z"></path> <path d="M323.8,65.7c-0.6,0-1.1-0.2-1.6-0.5c-0.9-0.7-1.5-1.6-1.6-2.8c-0.1-0.8-0.1-1.6-0.1-2.4c0-0.4,0-0.8,0-1.3 c0-0.8,0-1.6,0.1-2.4c0-0.5,0.1-1,0.1-1.5c0-0.2,0-0.5,0-0.7l0.1,0.1c0.4,0.2,0.8,0.4,1.1,0.6c1.4,0.7,2.6,1.3,3.8,1.7 c0.5,0.1,1.2,0.4,1.7,0.8c0.3,0.2,0.5,0.5,0.6,0.7c0,0,0.3,0.5,0.4,0.6c0.1,0.2,0.2,0.4,0.1,0.7c-0.1,0.9-0.3,1.8-0.6,2.6 c-0.1,0.3-0.2,0.5-0.3,0.8c-0.1,0.2-0.2,0.5-0.3,0.7c-0.2,0.7-0.8,1.2-1.4,1.7c-0.5,0.4-1.2,0.5-1.8,0.6 C324.1,65.7,324,65.7,323.8,65.7z M321.4,61.8c0,0.2,0,0.4,0,0.6l0,0.1c0,0.4,0.1,0.7,0.2,1.1c0.2,0.6,0.7,1,1.2,1.2 c0.3,0.1,0.5,0.1,0.7,0.1l0.6,0c0.3,0,0.6,0,1-0.1c0.6-0.1,1.1-0.5,1.5-1.2c0.4-0.7,0.6-1.5,0.7-2.3c0.1-0.7,0.1-1.4,0.2-2 c0.1-0.5-0.1-0.7-0.6-0.8c-1.6-0.3-3.2-0.5-4.8-0.7c-0.1,0-0.1,0-0.2,0c-0.5,0-0.5,0.4-0.6,0.6c-0.1,0.6-0.1,2.5-0.1,2.8 L321.4,61.8z"></path> <path d="M323.7,46.4c-0.3-0.1-0.5-0.1-0.6-0.2c-0.7-0.3-1.4-0.6-2.1-1.1l-0.5-0.3c-0.5-0.3-1-0.6-1.4-0.8c-0.5-0.3-0.9-0.6-1.4-1 l-0.3-0.2c0.3-0.2,0.6-0.3,0.9-0.3c0,0,0.1,0,0.1,0c0.4,0,0.7,0.1,1.1,0.3c0.5,0.2,1,0.4,1.5,0.6l0.3,0.1c0.8,0.3,1.5,0.5,2.3,0.8 l0.7,0.2L323.7,46.4z"></path> <path d="M319,64.7c-0.8,0-1.3-0.3-1.7-0.9c-0.5-0.8-1.1-1.7-1.4-2.7c0.2-0.1,0.4-0.1,0.5-0.1c0.9-0.2,1.8-0.3,2.7-0.5l0.4-0.1 c0,0.2,0,0.4,0,0.5c0,0.5,0.1,1.2,0.1,1.8c0,0.5,0.2,1,0.5,1.6l0.1,0.3c-0.2,0.1-0.3,0.1-0.5,0.1c-0.2,0-0.4,0-0.6,0H319z"></path> <path d="M324.1,63.9c-0.3,0-0.6,0-0.9-0.1c-0.4-0.1-0.6-0.4-0.6-0.8c0-0.4,0-0.8-0.1-1.2l0-0.4c0-0.4,0-0.8,0-1.2V59 c1.1,0.1,3.3,0.4,4.1,0.6c0,0.2,0,0.4-0.1,0.6l-0.1,0.6c0,0.4-0.1,0.7-0.1,1c-0.1,0.5-0.2,1-0.5,1.4c-0.3,0.4-0.6,0.7-1.2,0.7 C324.4,63.9,324.2,63.9,324.1,63.9z"></path> </g> </g> <g> <defs> <rect id="SVGID_5_" x="419.1" y="29.1" width="105.6" height="49.2"></rect> </defs> <clipPath id="SVGID_6_"> <use xlink:href="#SVGID_5_" style="overflow:visible;"></use> </clipPath> <g class="st2"> <path d="M419.1,29.1h1.8l0.8,7l0.4,4.1l1.9-6.8h1.7l1.9,6.8l0.4-4.1l0.7-7h1.8l-1.6,12.7h-2.4l-1.8-6.2l-1.8,6.2h-2.4L419.1,29.1z "></path> <path d="M436.4,40.2h3.1v-9.5h-3.1v-1.6h8v1.6h-3.1v9.5h3.1v1.6h-8V40.2z"></path> <path d="M452.1,29.1h1.9v11.1h6.5v1.6h-8.3L452.1,29.1L452.1,29.1z"></path> <path d="M467.8,29.1h3.7c4.1,0,5.3,2.7,5.3,6.3c0,3.7-1.2,6.5-5.3,6.5h-3.7V29.1z M469.7,40.2h1.8c1.5,0,2.4-0.7,2.8-1.6 c0.4-0.9,0.5-2.1,0.5-3.2c0-0.5,0-1.1-0.1-1.6c0-0.6-0.2-1.1-0.4-1.5c-0.4-0.9-1.3-1.6-2.8-1.6h-1.8L469.7,40.2L469.7,40.2z"></path> <path d="M424.2,59.9c-3.1,0-4.8-1.2-4.8-3.5c0-1.5,0.8-2.6,2.2-3c-1.1-0.5-1.9-1.4-1.9-2.9c0-2.3,1.9-3.6,4.5-3.6 c2.2,0,4.3,0.8,4.6,3.7h-1.8c-0.1-0.8-0.3-1.4-0.8-1.7c-0.5-0.3-1.1-0.5-1.9-0.5c-0.8,0-1.4,0.2-1.9,0.5c-0.5,0.3-0.8,0.8-0.8,1.6 c0,1.5,1.1,2.1,3.1,2.1h6.1v1.5h-1.9v5.8L424.2,59.9L424.2,59.9z M426.9,58.4v-4.2h-2.4c-0.9,0-1.7,0.2-2.3,0.5 c-0.6,0.3-0.9,0.9-0.9,1.7c0,1.5,1.3,2,3.1,2H426.9z"></path> <path d="M455.2,54.8l-4.9-7.7h2.1l1.9,3l1.9,3.2l1.9-3.2l1.9-3h2.1l-4.9,7.7v5.1h-1.9V54.8L455.2,54.8z"></path> <path d="M467.5,55.4v-8.2h1.9v8.2c0,1.1,0.2,1.9,0.6,2.4c0.4,0.4,1,0.7,1.9,0.7c0.9,0,1.5-0.2,1.9-0.7c0.4-0.5,0.6-1.3,0.6-2.4 v-8.2h1.9v8.2c0,1.7-0.3,2.9-1.1,3.6c-0.7,0.7-1.8,1.1-3.3,1.1C468.9,60.1,467.5,58.8,467.5,55.4z"></path> <path d="M482.8,47.2h2.5l1.4,4.2l0.8,2.8l0.8-2.8l1.4-4.2h2.4v12.7h-1.7v-7.5l0.2-3.5l-2.5,7.4h-1.4l-2.5-7.4l0.2,3.5v7.5h-1.7 V47.2L482.8,47.2z"></path> <path d="M498.5,47.2h2.5l1.4,4.2l0.8,2.8l0.8-2.8l1.4-4.2h2.4v12.7h-1.7v-7.5l0.2-3.5l-2.5,7.4h-1.4l-2.5-7.4l0.2,3.5v7.5h-1.7 V47.2L498.5,47.2z"></path> <path d="M517.9,54.8l-4.9-7.7h2.1l1.9,3l1.9,3.2l1.9-3.2l1.9-3h2.1l-4.9,7.7v5.1h-1.9V54.8L517.9,54.8z"></path> <path d="M420.8,65.3h8.2v1.6h-6.4v3.8h5.5v1.6h-5.5v4.1h6.4v1.6h-8.2V65.3z"></path> <path d="M436.5,65.3h2.5l4,10.9l-0.2-3.7v-7.2h1.7v12.7h-2.5l-4-10.9l0.2,3.7v7.2h-1.7V65.3L436.5,65.3z"></path> <path d="M451.5,73.9c0-0.3,0-0.6,0.1-0.8h1.8c0,0.2-0.1,0.5-0.1,0.8c0,1.7,0.8,2.8,2.5,2.8c1.9,0,2.6-1.2,2.6-3.5v-7.8h1.9v7.9 c0,3.3-1.5,5.1-4.4,5.1C453.1,78.3,451.5,76.5,451.5,73.9z"></path> <path d="M466.8,71.7c0-4.1,1.6-6.7,5-6.7c1.7,0,2.9,0.6,3.7,1.8c0.8,1.2,1.2,2.8,1.2,4.8c0,4.2-1.6,6.7-5,6.7 C468.4,78.3,466.8,75.8,466.8,71.7z M474.4,75c0.4-1,0.5-2.2,0.5-3.3c0-2.2-0.3-5-3.1-5c-2.8,0-3,2.8-3,5c0,2.1,0.3,5,3,5 C473.2,76.6,474,75.9,474.4,75z"></path> <path d="M486.6,73l-4.9-7.7h2.1l1.9,3l1.9,3.2l1.9-3.2l1.9-3h2.1l-4.9,7.7v5.1h-1.9V73z"></path> <path d="M501.9,75.5h2.5v2.5h-2.5V75.5z M502.2,69.3v-3.9h1.9v4l-0.5,4.3h-0.9L502.2,69.3z"></path> </g> </g> <g> <defs> <rect id="SVGID_7_" x="599" y="24" width="82" height="95.8"></rect> </defs> <clipPath id="SVGID_8_"> <use xlink:href="#SVGID_7_" style="overflow:visible;"></use> </clipPath> <g class="st3"> <path d="M615.7,50.3c1.2-0.7,2.2-1.5,3.3-2.1c7.6-5,12.6-8.3,22.9-8.2c9.9,0.1,15,4.3,19.9,8.2c0.8,0.7,1.6,1.3,2.4,1.9 c5.4,4.1,11,5.4,16.9,3.8c-7.9-20.6-23-29.9-28.8-30.1c-4.9-0.2-9.2,2.5-12.2,2.6c-3,0.2-6.1-2.5-10.9-2.6 c-4.8-0.1-13.6,5.3-19.2,11.4c-5,5.4-9.8,16.4-10.9,18.7C599.1,54.1,606.4,56.3,615.7,50.3z M612,36.8c3.3-4,15.1-14.1,24.9-8.2 c0.3,0.2,0.4,0.6,0.2,0.9c-0.2,0.3-0.6,0.4-0.9,0.2c-9-5.4-20,4.1-23.2,7.9c-0.1,0.2-0.3,0.2-0.5,0.2c-0.1,0-0.3-0.1-0.4-0.2 C611.8,37.5,611.8,37.1,612,36.8z"></path> <path d="M650.4,60.5c-0.2,0.1-0.4,0.1-0.6,0.2c0,0-1.8,0.7-2.7,0.8c-1.4,0.4-2.7,0.7-4,0.9c-1.2,0.2-2.4,0.3-3.7,0.3 c-2.3,0-4.8-0.4-8.1-1.3c-0.5-0.1-1.6-0.5-1.6-0.5c-1.6-0.5-3.3-1.1-5.2-1.8c-8.3-3.2-23.5-2.8-25.4-2.7c5.7,16.3,17,22.5,23,24.2 c3,0.9,7.5,2,13.4,2.5c-2-9.3-9.6-12.6-9.7-12.7c-0.3-0.1-0.5-0.5-0.4-0.9c0.1-0.3,0.5-0.5,0.9-0.4c0.1,0,2.7,1.2,5.4,4 c1.7,1.5,3.3,3.4,4.1,5.6c1.9,5.6,1.7,7.7,1.7,13.7c0,11.5-0.7,15.2-1.4,18.5c-1,5.1-0.2,8.8,2.2,8.8c3.2,0,2.4-5.1,2.2-7.6 c-0.2-2.5-1.6-4.5-1.4-13.1c0.1-5.2,0-10.2,0-13.2c0-1.3,0.3-3.5,1-5.7c0,0,0,0,0-0.1c0,0,0,0,0,0c0.4-1.5,1.1-2.9,2.1-3.8 c0.3-0.3,0.5-0.5,0.8-0.7c0.7-0.5,1.5-0.8,2.4-0.8c0.7,0,1.4,0.2,2,0.5c0.8,0.3,1.6,0.9,2.2,1.6c0.9,1,1.5,2.4,1.9,3.9 c0.5,1.5,0.8,3.1,0.8,4.2c0,3.3,0,9.6,0,9.6s-0.2,3.1-1,6.2c-0.7,2.9-0.4,6.5,1.5,6.5c1.3,0,2.1-1.8,1.5-5.2 c-0.7-3.8-0.8-4.5-0.8-7.6c0-3.1,0-8.6,0-8.6s-0.1-1.4,0.2-3.3c0-0.1,0-0.2,0-0.3c0-0.3,0.1-0.6,0.1-0.8c0-0.2,0.1-0.4,0.1-0.6 c0.4-1.7,1-3.6,2.1-5.2c0.1-0.1,0.2-0.3,0.3-0.4c1.8-2.9,3.9-4.9,4.1-5.1c0.3-0.3,0.7-0.2,1,0c0.3,0.3,0.2,0.7,0,1 c-0.1,0.1-5,4.7-6.1,10.2c1.1-0.3,2.2-0.5,3.4-0.9c15.8-4.4,21.4-20.7,22.4-24.2c-1.5,0.1-10.6,0.7-18.1,1.4 C658.1,58.1,654,59.4,650.4,60.5z"></path> <path d="M639.5,59.2h-9.8v0.3c4.2,1.3,7.1,1.8,9.8,1.8V59.2z"></path> <path d="M642.9,61.1c2.1-0.3,4.4-1,6.9-1.8v-0.1h-8.9v2.1C641.6,61.2,642.2,61.2,642.9,61.1z"></path> <path d="M645.4,76.3c-0.9,0-1.6,0.3-2.2,1c-1.3,1.4-2,3.8-2.3,6c3,0,6.2-0.3,9.7-0.9c-0.4-1.7-1-3.4-2-4.5 C647.7,76.8,646.7,76.3,645.4,76.3z"></path> <path d="M654.4,47.3c0.3,0.4,0.7,0.7,1.6,0.7c1.2,0,2.3,0,3.1-0.1c-0.4-0.3-0.7-0.6-1.1-0.8c0,0,0,0-0.1-0.1c-0.7-0.5-1.3-1-2-1.4 c-0.2-0.1-0.3-0.2-0.5-0.3c-0.3-0.2-0.7-0.4-1-0.6V47.3L654.4,47.3z"></path> <path d="M627.6,44.5v3.7c0.6,1,2.1,2.4,6.1,2.4c4.1,0,5.5-0.9,6-1.9v-7.2C634.8,41.6,631.2,42.6,627.6,44.5z"></path> <path d="M641.8,41.4c-0.2,0-0.4,0-0.6,0V49c0.6,0.9,2.2,1.5,5.8,1.5c4,0,5.5-1.4,6.1-2.4v-4.2C650.1,42.4,646.5,41.4,641.8,41.4z"></path> <path d="M621.8,47.9c0.8,0.1,1.8,0.1,3,0.1c0.8,0,1.2-0.3,1.5-0.6v-2.3C624.9,46,623.4,46.9,621.8,47.9z"></path> </g> </g> <g> <defs> <rect id="SVGID_9_" x="0.5" y="15.5" width="57.7" height="91.6"></rect> </defs> <clipPath id="SVGID_10_"> <use xlink:href="#SVGID_9_" style="overflow:visible;"></use> </clipPath> <g class="st4"> <path d="M57.8,68.7c0.4-5.4,0.7-9.1,0-15.3c-0.7-6.2-2.5-10.2-6-10.2s-4.5,3.5-4.8,8.2c-0.3,4.8-0.4,16.5-0.7,21.6 c-0.3,5.2-3.1,5.9-8.2,5.9c-0.1-2.8,0.4-11.1-0.8-21.3s-2.7-17.7-2.9-28.3c-0.2-10.7-4.2-13.7-5.8-13.7s-6.4-1.1-7.1,8.5 c-0.7,9.7-2.1,18.7-2.8,34.4c-8.1,0.4-8.1-2.7-8.3-7.6c-0.2-4.9,0-15.7,0-15.7c0.1-6.9-2.7-9.1-6.1-9.8c-3.4-0.6-3.9,1.1-3.9,5.2 c0,4.1,0.4,17.1,0.8,26c0.4,8.9,3.2,11.8,6.3,13.2c3.1,1.4,11.6-0.9,11.6-0.9s0.8,27.6,1.2,35.2c-2,0-3.9,0-5.9,0.1 c-3.5,0.1-7,0.2-10.6,0.3c-0.5,0-1.1,0-1.6,0.3c0,0,0,0,0,0c-0.6,0.3-0.4,1.4,0.3,1.4c14.8,0.5,29.6,1.1,44.4,0.5 c1.2,0,2.5-0.2,3.5-0.8c0.4-0.2,0.2-1-0.2-1c-3.5-0.2-7.1-0.3-10.6-0.5c-0.2-1.8-0.6-5.5-1-10.7c8.8-2.1,15.5-4.9,17.8-7.5 C58.8,83.7,57.4,74,57.8,68.7z M8.7,31.1c1.1,3.6,0.8,7.9,0.7,17.3c-0.1,9,1.9,10.1,2.8,10.5c1.2,0.6,2.3,0.7,3.8,0.9 c0.2,0,0.4,0.2,0.5,0.4c-2.1,0-4.4,0.4-5.6-1.6c-1-1.7-1.3-3.8-1.6-5.7c-0.5-3.2-0.7-6.3-0.9-9.5c-0.2-3-0.3-6-0.4-9 c0-1.5-0.2-3.1-0.6-4.6c-0.3-0.9-0.8-1.8-1.2-2.6C7,27.4,7.9,28.5,8.7,31.1z M5.4,27.2c0.1,0,0.1-0.1,0.2-0.1 c0.9,1.8,1.6,3.4,1.9,5.6c0.2,1.8,0.1,3.7,0.2,5.6c0.1,3.5,0.4,7,0.7,10.5c0.3,3,0.4,6.6,1.8,9.4c1.4,2.8,3.6,2.6,6.4,2.6 c0,0-0.1,0.1-0.1,0.1c-0.4,0.3-0.9,0.6-1.3,0.8c-2.3-0.2-4.3-0.7-5.5-3.1c-0.7-1.3-1.1-2.9-1.3-4.4c-0.6-3-1-6-1-8.9 C7.2,39.7,8,32.8,5,27.7C5.1,27.5,5.2,27.3,5.4,27.2z M9.1,61.4c-3.3-2.5-2.7-10-3.1-15.2C5.7,41,5.5,34.1,5.6,31.7 c0-0.6,0-1.1-0.1-1.6c2.3,6.1,0.4,13.5,1.4,19.7c0.4,3,0.8,6.1,2,8.9c1.1,2.3,2.8,3,4.9,3.3C12.4,62.6,10.7,62.6,9.1,61.4z M34.7,53.9c0.7,6.5,0.6,17.4,1.1,23.3c0.4,5.9,1.9,17,2.3,22.3c0.2,3,0.3,4.3-0.3,4.9c-0.9-4.6-1.3-9.4-1.8-14.1 c-0.5-4.9-0.8-9.9-1.2-14.8c-0.4-4.7-0.8-9.4-1-14.1c-0.1-1.7,0-3.4,0-5.1c0-2.4-0.4-4.7-0.5-7.1c-0.2-4.1-0.5-8.2-0.8-12.3 c-0.2-4-0.2-8.1-0.4-12.1c0.4,2.7,0.7,6,0.7,8.5C32.9,38.8,34,47.4,34.7,53.9z M35.1,101.3c-0.3-2.5-0.8-5-0.9-7.6 c-0.2-3.7-0.3-7.3-0.5-11c-0.2-3.5-0.4-7-0.6-10.5c-0.5-9.2-1-18.5-1.4-27.7c-0.3-8.3-0.9-16.6-0.9-24.8c0.2,0.2,0.3,0.6,0.5,1 c0.3,4.6,0.2,9.2,0.5,13.8c0.3,4,0.7,8,0.8,12c0.1,4.3,0.7,8.5,0.6,12.7c-0.1,4.9,0.6,9.9,0.9,14.8c0.4,5.2,0.7,10.4,1.3,15.6 c0.5,4.9,0.9,10,1.9,14.9c-0.5,0-1.1,0-1.6-0.1C35.2,103.5,35.2,102.4,35.1,101.3z M30.2,19.4c0,3.1,0.2,6.3,0.3,9.4 c0.2,4,0.1,8,0.3,12c0.3,4.6,0.5,9.1,0.7,13.7c0.5,9,0.9,18,1.4,27c0.2,4.1,0.4,8.2,0.5,12.3c0.1,2.4,0.5,4.6,0.8,7 c0.2,1,0,2.8,0.4,3.7c-0.2,0-0.5,0-0.8,0c-0.3-2-0.6-4-0.9-5.9c-0.4-2.7-0.1-5.3-0.3-8c-0.3-3.3-0.9-6.5-0.9-9.8 c0-3.8,0.2-7.8-0.2-11.6c-0.8-7.7-0.7-15.3-1.1-23c-0.5-8-0.6-16-0.7-24c0.1-1.6,0.2-2.5,0.2-2.5C30,19.5,30.1,19.4,30.2,19.4z M29.3,28.8c0.1,4.7,0.2,9.3,0.4,14c0.3,7.9,0.3,15.9,1,23.8c0.4,4.2,0.5,8.3,0.5,12.5c0,3.3,0.4,6.6,0.8,9.9 c0.3,2.5,0.1,5.1,0.3,7.6c0.2,2.6,0.7,5.2,1.1,7.7c-0.2,0-0.4,0-0.6,0c-0.5-0.4-0.6-1-0.7-1.6c-0.1-1.2-3.1-37.6-3.4-52.3 C28.5,42.8,28.9,34.8,29.3,28.8z M53.3,76.1c-0.4-5.4,0.2-12.4,0.5-18.5c0.3-6.2-0.3-8.4-1.1-10.6c-0.2-0.5-0.5-0.9-0.6-1.3 c0.9,0.8,1.6,2,2,3.5c0.4,1.6,0.4,3.3,0.4,4.9l-0.3,32.1c-0.1,0-0.2,0.1-0.2,0.1S53.7,81.5,53.3,76.1z M54.8,85.8L55.1,54 c0-1.6,0-3.4-0.4-5c-0.4-1.7-1.3-3.2-2.5-4.1c0.1-0.1,0.1-0.1,0.2-0.1c0.1-0.1,0.2-0.1,0.4-0.1c1.3,1.4,2.2,3.4,2.7,5.6 c0.5,2.6,0.3,5.3,0.2,7.8l0,0.6c-0.5,8.7-0.5,17.5,0.1,26.2C55.3,85.3,55,85.6,54.8,85.8z M56.7,63.3c-0.2,6-0.3,11.4,0,16.9 c0.1,1.6-0.1,2.8-0.5,3.7c-0.5-8.3-0.5-16.8-0.1-25.1l0-0.6c0.2-2.6,0.3-5.4-0.2-8c-0.4-1.9-1.1-3.6-2-5c0.8,0.6,1.5,1.8,2,3.7 C56.7,52.2,56.9,57.3,56.7,63.3z"></path> </g> </g> <g> <defs> <rect id="SVGID_11_" x="751.1" y="25.5" width="79.4" height="63"></rect> </defs> <clipPath id="SVGID_12_"> <use xlink:href="#SVGID_11_" style="overflow:visible;"></use> </clipPath> <g class="st5"> <path d="M763.6,25.8h2v14.9h7.6v1.6h-9.6V25.8z"></path> <path d="M774.5,34.1v-0.2c0-4.7,3.3-8.4,8.1-8.4c4.9,0,8.1,3.7,8.1,8.4v0.2c0,4.7-3.2,8.4-8,8.4C777.8,42.5,774.5,38.7,774.5,34.1 z M788.6,34v-0.2c0-3.7-2.2-6.7-6-6.7c-3.8,0-6.1,2.8-6.1,6.8v0.2c0,4,2.7,6.7,6.1,6.7C786.3,40.8,788.6,38.1,788.6,34z"></path> <path d="M792,25.8h2l4.9,14.6l4.9-14.6h1.9L800,42.3h-2.4L792,25.8z"></path> <path d="M808.5,25.8h9.6v1.6h-7.6V33h6.1v1.6h-6.1v6h8v1.6h-10.1V25.8z"></path> <path d="M751.1,57.6c0-5.5,4.4-9.6,9.5-9.6c5.3,0,9,3.6,9,8.2c0,4.2-2.4,5.7-4.2,5.7c-1.8,0-2.4-0.8-2.6-1.9 c-0.6,1.2-2,2.1-3.3,2.1c-2.2,0-3.6-1.5-3.6-3.9c0-3,2-5.2,4.4-5.2c1.6,0,2.4,0.8,2.7,1.5l0.2-1.3h1.9l-0.7,5.6 c-0.2,1.2,0.2,1.8,1,1.8c1.3,0,2.5-1.3,2.5-4.3c0-4-2.7-6.7-7.3-6.7c-4.5,0-7.7,3.2-7.7,8c0,4.1,2.5,7.6,7.5,7.6 c2.4,0,3.9-0.6,5.2-1.7h1.8c-1.2,1.9-3.8,3.3-7,3.3C754.4,66.7,751.1,62.4,751.1,57.6z M762.8,57c0-1.7-0.9-2.5-2.3-2.5 c-1.4,0-2.6,1.3-2.6,3.7c0,1.6,0.9,2.5,2.1,2.5C761.3,60.7,762.8,59.4,762.8,57z"></path> <path d="M773.1,48.9h9.7v1.6h-7.7v5.9h6V58h-6v7.4h-2V48.9L773.1,48.9z"></path> <path d="M785.8,48.9h2v16.5h-2V48.9z"></path> <path d="M792.1,48.9h5c3.2,0,5.8,1.3,5.8,4.6v0.1c0,2.7-1.8,4.1-4.1,4.5l5.1,7.3h-2.2l-4.9-7.2h-2.5v7.2h-2L792.1,48.9L792.1,48.9 z M797.2,56.6c2.4,0,3.6-1,3.6-3.1v-0.1c0-2.2-1.4-3-3.6-3h-3.1v6.1H797.2z"></path> <path d="M805.4,60.4h1.9c0.3,2,1,3.6,4.4,3.6c2.1,0,3.8-1.3,3.8-3.1s-0.9-2.7-4-3.2c-3.5-0.5-5.5-1.6-5.5-4.6 c0-2.5,2.2-4.5,5.3-4.5c3.3,0,5.4,1.6,5.7,4.6h-1.8c-0.4-2.1-1.6-2.9-3.9-2.9c-2.3,0-3.4,1.1-3.4,2.7c0,1.6,0.6,2.4,4,3 c3.7,0.6,5.6,1.7,5.6,4.8c0,2.8-2.4,4.9-5.7,4.9C807.3,65.6,805.7,63.2,805.4,60.4z"></path> <path d="M823.7,50.5h-4.8v-1.6h11.6v1.6h-4.8v14.9h-2V50.5z"></path> <path d="M769.2,72h5c3.1,0,5.3,1,5.3,4.3v0.1c0,1.5-0.6,2.8-2.5,3.5c2.4,0.6,3.3,1.8,3.3,4v0.1c0,3.1-2.1,4.6-5.4,4.6h-5.7 L769.2,72L769.2,72z M774.1,79.2c2.4,0,3.3-0.9,3.3-2.9v-0.1c0-1.9-1.1-2.6-3.4-2.6h-3v5.6H774.1L774.1,79.2z M774.8,87 c2.4,0,3.5-1.1,3.5-3.1v-0.1c0-2-1.1-3-3.8-3h-3.4v6.2L774.8,87L774.8,87z"></path> <path d="M783.7,72h2v16.5h-2V72z"></path> <path d="M793.3,73.6h-4.8V72h11.6v1.6h-4.8v14.9h-2V73.6L793.3,73.6z"></path> <path d="M802.9,72h9.6v1.6h-7.6v5.6h6.1v1.6h-6.1v6h8v1.6h-10.1V72L802.9,72z"></path> </g> </g> </svg> 