<?xml version="1.0" encoding="UTF-8"?> <svg xmlns="http://www.w3.org/2000/svg" width="204" height="454" viewBox="0 0 204 454" fill="none"><path d="M23.8154 289.429C23.5322 289.071 23.3832 288.624 23.5173 288.103C23.5322 288.073 23.5471 288.043 23.5471 288.013C23.4279 286.926 23.4726 285.823 23.7707 284.72C24.188 283.111 25.0077 281.561 25.6485 280.041C27.3177 276.048 28.9571 272.039 30.6412 268.06C33.4878 261.295 36.5132 254.619 39.5833 247.958C41.491 243.831 43.339 239.614 45.4404 235.561C44.0693 235.59 42.7131 235.62 41.3419 235.635C35.9916 240.478 30.1494 245.813 25.6038 249.866C21.6395 253.383 17.6006 257.019 15.2011 261.742C13.5767 264.946 12.7868 268.493 12.1161 272.024C10.8046 279.028 9.9551 286.121 9.5229 293.229C11.3858 293.229 13.2637 293.229 15.1266 293.229C15.8569 293.229 16.3934 293.721 16.6319 294.376C16.9896 295.345 17.2876 296.343 17.5559 297.342C18.0328 299.115 18.4054 300.933 18.5842 302.766C18.7482 304.539 18.7184 306.446 17.8838 308.056C16.7958 310.157 14.143 310.663 11.9969 310.902C11.0431 311.006 9.91039 311.006 8.92676 310.723C9.98491 314.135 14.5603 315.939 18.4054 315.193C25.3057 313.852 24.188 312.183 30.1643 298.847C30.3282 298.489 30.4773 298.087 30.6412 297.669C29.2105 296.88 27.899 295.896 26.811 294.749C25.3952 293.229 24.3221 291.396 23.8154 289.429Z" fill="black"></path><path d="M13.3685 232.029C23.8457 232.521 34.2781 232.67 44.7553 232.327C45.7688 232.297 46.7822 232.297 47.7956 232.268C47.9 232.253 47.9894 232.238 48.0937 232.253C48.1235 232.253 48.1384 232.238 48.1533 232.238C48.4216 232.238 48.6899 232.238 48.9581 232.253C64.7559 231.865 80.5685 232.148 96.3514 232.67C97.7672 229.377 99.1532 226.069 100.554 222.761C105.07 212.121 110.003 201.616 115.547 191.468C117.753 187.415 119.765 183.287 123.923 180.918C128.111 178.548 133.208 178.31 137.768 179.74C142.075 181.096 146.084 183.853 148.514 187.698C151.345 192.168 150.407 196.743 149.438 201.645C147.515 211.391 144.877 221.062 142.12 230.643C143.76 231.165 145.563 231.269 147.262 231.418C150.347 231.701 153.432 231.88 156.517 232.014C166.994 232.506 177.427 232.655 187.904 232.312C189.379 232.268 190.87 232.253 192.345 232.223C192.464 232.089 192.584 231.955 192.718 231.835C198.739 226.501 201.943 219.333 203.597 211.674V165.495C202.986 159.921 202.286 154.363 201.645 148.805C199.842 133.323 199.454 118.064 201.123 102.521C201.719 96.9781 202.614 91.4944 203.597 86.0256V0H61.2237C52.5648 0.625857 43.9207 1.38583 35.2618 2.02659C34.9935 2.1607 34.7252 2.26501 34.4272 2.35442C24.9187 4.97706 14.516 2.92067 5.42489 5.66252C2.5187 10.9376 0.879309 16.9876 0 23.112V230.927C1.34132 231.21 2.75715 231.299 4.09847 231.433C7.18351 231.716 10.2834 231.88 13.3685 232.029ZM139.542 119.971C139.587 119.986 139.959 120.09 140.004 120.09C140.242 120.18 140.496 120.269 140.719 120.373C140.734 120.373 141.122 120.582 141.166 120.597C141.375 120.716 141.569 120.85 141.762 120.984C142.836 121.729 143.76 122.459 144.475 123.413C144.818 123.86 145.056 124.322 145.265 124.859C145.309 124.963 145.324 125.008 145.339 125.022C145.339 125.052 145.354 125.112 145.384 125.216C145.444 125.484 145.503 125.753 145.563 126.021C145.757 126.9 145.95 127.809 146.219 128.658C146.204 129.254 146.174 129.836 146.114 130.417C145.876 132.294 145.384 134.038 144.684 135.692C145.488 135.513 146.293 135.424 147.098 135.409C147.456 135.647 147.858 135.826 148.29 135.93C149.87 136.303 151.554 137.42 152.88 138.464C153.685 139.089 154.669 139.969 155.354 140.788C155.906 142.576 155.682 144.543 154.937 146.302C154.639 146.704 154.326 147.091 153.983 147.464C153.551 147.956 153.268 148.209 152.642 148.775C152.031 149.327 151.39 149.833 150.734 150.34C150.138 150.787 149.527 151.219 148.901 151.636C148.633 151.815 148.35 151.994 148.067 152.173C147.933 152.262 147.426 152.56 147.351 152.62C143.998 154.572 140.391 155.585 136.665 156.598C134.072 157.299 131.539 158.253 128.871 158.64C126.233 159.027 123.655 158.64 121.121 159.609C121.076 159.623 121.032 159.653 120.987 159.668C120.689 159.668 120.406 159.683 120.108 159.668C119.109 160.413 117.261 159.832 117.455 158.238C117.962 154.11 118.871 150.042 120.152 146.093C120.525 145.318 120.898 144.558 121.27 143.798C122.686 140.878 123.759 137.853 125.085 134.902C126.606 131.519 129.229 128.822 131.449 125.902C131.792 125.455 131.941 124.993 131.986 124.546C132.179 124.307 132.373 124.099 132.582 123.86C132.954 123.681 133.312 123.413 133.61 122.996C133.819 122.698 134.057 122.43 134.281 122.147C134.832 121.67 135.414 121.223 136.025 120.865C137.127 120.224 138.32 119.941 139.482 119.956C139.512 119.971 139.527 119.971 139.542 119.971ZM62.4011 49.0106C62.878 48.1314 63.191 47.0883 63.1612 45.8366C63.1463 44.9574 63.2059 44.0782 63.2506 43.1991C63.6381 41.4556 64.115 39.7569 64.8006 38.1475C66.0227 35.2715 67.9303 33.0065 70.2404 31.3674C70.2851 31.3525 70.3149 31.3227 70.3596 31.2929C70.4788 31.2631 71.3432 30.9054 71.4327 30.8756C72.0288 30.6819 72.6398 30.518 73.2509 30.3839C73.2956 30.369 74.3388 30.2051 74.4581 30.1753C75.0244 30.1157 75.6056 30.0859 76.1869 30.071C79.3762 29.9816 82.2228 30.071 85.0247 30.8756C86.3511 31.2631 87.4689 31.7995 88.6612 32.5297C88.8996 32.6787 88.989 32.7234 89.0486 32.7532C89.1083 32.8128 89.2126 32.9022 89.4063 33.0661C89.928 33.4983 90.4347 33.9453 90.9265 34.3924C92.5808 35.8527 94.2649 37.313 96.0384 38.5945C96.873 39.7569 97.6629 40.949 98.3634 42.1709C100.629 46.1644 102.194 50.307 103.222 54.5539C104.519 53.0489 105.964 51.6928 107.514 50.5007C108.542 50.4411 109.586 50.2027 110.584 49.7855C114.206 48.2208 119.124 47.9824 123.222 48.0718C125.711 48.1314 128.886 48.4294 131.419 49.0106C135.086 51.7226 137.515 55.8503 138.603 60.3803C138.588 61.6023 138.543 62.8093 138.439 64.0312C138.29 65.6107 138.111 66.5495 137.709 68.5314C137.306 70.4835 136.8 72.4207 136.248 74.3429C135.741 76.0864 135.175 77.8149 134.564 79.5286C134.296 80.2886 134.013 81.0485 133.729 81.7936C133.595 82.1512 133.059 83.4775 132.969 83.701C129.258 92.3736 123.684 99.6007 117.887 106.962C113.848 112.103 110.271 117.631 105.636 122.266C101.061 126.84 95.4572 129.806 91.9101 135.409C91.8505 135.513 91.8058 135.617 91.7462 135.722C91.1649 136.139 90.6284 136.601 90.0472 137.003C89.1977 139.909 84.7266 141.459 82.8041 138.061C77.8114 129.269 73.6831 120.001 70.449 110.434C70.0466 108.393 69.674 106.351 69.3015 104.339C67.8409 96.5907 65.5309 89.1102 63.8468 81.4211C61.9242 72.6144 63.1314 63.5543 63.191 54.6284C63.2059 53.2575 62.8333 52.125 62.267 51.216C62.267 50.4709 62.3266 49.7408 62.4011 49.0106Z" fill="black"></path><path d="M55.9034 279.952C54.6813 278.209 53.8914 276.167 53.8914 274.022C53.8914 272.382 54.413 270.937 55.0241 269.462C56.5889 265.707 58.1538 261.951 59.7187 258.196C62.8931 250.567 66.1421 243.027 69.7041 235.636C63.7277 235.561 57.7514 235.487 51.7751 235.412C50.866 235.427 49.9569 235.457 49.0478 235.472C46.3055 240.464 44.0402 245.754 41.6705 250.91C38.9879 256.751 36.3648 262.607 33.861 268.523C36.2009 269.149 38.5408 269.79 40.8806 270.415C41.7003 270.639 42.1921 271.533 41.9686 272.338C41.6705 273.411 41.3426 274.469 40.9849 275.527C39.6883 279.461 38.2725 283.693 35.873 287.105C34.6211 288.893 33.2798 289.951 31.1039 290.353C30.001 290.562 28.7938 290.681 27.6016 290.622C29.0621 293.185 31.9236 295.092 34.5913 295.941C36.8716 296.657 39.3754 296.836 41.596 295.837C43.8017 294.854 45.5156 292.961 47.0507 291.158C50.1357 287.522 52.9525 283.693 55.9034 279.952Z" fill="black"></path><path d="M73.2208 235.293C71.5069 238.72 69.8377 242.192 68.2878 245.694C66.1864 250.418 64.3085 255.231 62.3264 259.999C64.4725 260.655 66.6335 261.311 68.7796 261.981C69.6738 262.25 70.0017 263.054 69.8675 263.904C69.7483 264.753 69.5695 265.602 69.3757 266.452C68.6157 269.849 67.5277 273.485 65.4114 276.302C64.3234 277.762 62.9225 279.073 61.1043 279.52C60.6423 279.625 60.1952 279.669 59.748 279.684C60.7019 280.653 61.8643 281.472 63.1312 282.098C71.4771 273.902 79.0928 265.051 85.2778 254.918C89.0484 248.749 92.1334 242.312 95.0098 235.77C87.7369 235.517 80.4789 235.367 73.2208 235.293Z" fill="black"></path><path d="M153.7 235.01C149.72 234.786 145.085 234.92 141.255 233.654C140.495 236.276 139.735 238.899 138.975 241.522C137.082 248.063 134.802 254.486 132.268 260.804C131.106 263.71 129.899 266.601 128.677 269.477C127.216 272.949 124.668 276.137 122.596 279.282C113.207 293.557 104.831 308.444 96.6489 323.434C95.6802 325.208 92.9827 323.628 93.9514 321.855C94.175 321.438 94.4134 321.02 94.637 320.603C98.5119 313.54 102.432 306.506 106.455 299.533C112.074 289.757 118.244 280.414 124.31 270.922C126.113 268.106 127.246 264.917 128.498 261.832C129.675 258.956 130.808 256.065 131.881 253.145C134.221 246.737 136.084 240.225 137.887 233.654C139.631 227.306 141.464 220.987 143.148 214.625C144.802 208.366 146.561 201.958 147.336 195.521C148.439 186.401 136.546 180.456 128.826 182.303C126.471 182.87 124.071 184.121 122.462 185.969C121.18 187.444 120.271 189.397 119.317 191.095C116.709 195.73 114.31 200.468 111.985 205.237C107.022 215.414 102.849 225.845 98.348 236.217C93.8769 246.528 88.5265 256.453 81.9093 265.543C69.2711 282.858 52.4302 296.284 36.0065 309.8C35.6339 310.113 35.2166 310.202 34.8291 310.172C22.7423 322.168 16.7511 331.675 14.8136 345.459C10.8791 373.503 10.5512 377.213 10.2979 454L94.637 440.93C93.1764 370.149 95.874 387.048 117.633 369.375C124.936 363.445 168.022 335.504 172.851 327.428C179.706 315.954 179.632 313.942 179.304 300.591L173.715 235.68C173.104 235.68 172.478 235.68 171.867 235.665C165.801 235.531 159.751 235.352 153.7 235.01ZM98.6609 259.105C99.0484 258.39 100.121 258.092 100.807 258.539C101.82 259.195 102.879 259.776 103.967 260.297C104.19 260.402 104.399 260.491 104.622 260.595C104.637 260.61 104.667 260.61 104.682 260.625C104.801 260.67 104.935 260.729 105.055 260.774C105.517 260.953 105.979 261.102 106.455 261.221C106.664 261.281 106.873 261.325 107.096 261.355C107.111 261.355 107.111 261.355 107.126 261.355C107.245 261.355 107.35 261.37 107.469 261.385C107.558 261.385 107.886 261.34 107.991 261.355C108.08 261.34 108.169 261.311 108.274 261.281C109.108 260.998 109.958 261.609 110.196 262.369C110.465 263.203 109.883 264.023 109.108 264.291C107.007 265.006 104.563 263.993 102.655 263.129C101.478 262.592 100.315 261.966 99.2273 261.251C98.4821 260.759 98.2436 259.895 98.6609 259.105ZM136.71 186.401L138.856 187.132C139.69 187.415 140.421 187.906 141.24 188.458C143.073 189.68 144.087 191.632 144.176 194.09C144.221 195.506 143.938 196.892 143.67 198.218L143.565 198.74C143.431 199.41 143.208 200.051 142.969 200.722L142.239 202.957C141.836 203.91 139.795 210.81 138.766 212.613C138.409 213.254 137.723 214.431 136.099 213.894C135.935 213.835 135.741 213.76 135.517 213.671C129.958 211.212 124.533 208.753 119.377 205.714C117.797 204.79 117.529 203.925 118.304 202.227C119.243 200.17 120.316 197.831 121.329 195.491C122.581 192.615 124.31 190.171 126.471 188.19C128.721 186.133 130.927 185.269 133.207 185.552C134.474 185.701 135.696 186.059 136.71 186.401ZM95.9485 266.645C96.2764 266.973 96.6489 267.271 97.0066 267.569C97.0513 267.599 97.0811 267.629 97.1259 267.659C97.1259 267.659 97.3047 267.793 97.3494 267.822C97.573 267.986 97.8114 268.15 98.035 268.314C98.5566 268.672 99.0782 269 99.6297 269.298C102.238 270.758 105.278 271.637 108.363 271.026C109.198 270.862 110.047 271.25 110.286 272.114C110.494 272.889 110.017 273.872 109.198 274.036C103.669 275.124 97.6922 272.755 93.7428 268.851C92.2971 267.435 94.5177 265.215 95.9485 266.645Z" fill="black"></path><path d="M125.145 195C124.579 196.207 123.998 197.399 123.327 198.77L122.284 200.915C121.911 201.675 121.554 202.435 121.211 203.195C123.953 204.939 132.433 209.215 136.532 210.914L138.052 206.28C138.588 204.641 139.11 203.016 139.617 201.377L140.079 199.902C140.586 198.323 141.092 196.683 141.435 195.059C141.808 193.271 141.301 191.826 139.989 190.887C138.991 190.171 137.903 189.635 136.636 189.218C135.965 188.994 135.235 188.815 134.475 188.666C132.225 188.249 130.436 188.696 128.856 190.097C127.247 191.468 126.01 193.122 125.145 195Z" fill="black"></path><path d="M27.1987 287.433C27.929 287.522 28.6891 287.507 29.4193 287.448C29.8068 287.418 30.1943 287.343 30.5818 287.269C30.865 287.209 31.1481 287.12 31.4462 287.06C31.4313 287.06 31.5505 287.03 31.6251 287.001C31.7145 286.956 31.8784 286.867 31.9231 286.837C31.9678 286.807 31.9976 286.792 32.0424 286.762C32.0424 286.762 32.0424 286.762 32.0573 286.747C32.2957 286.539 32.5193 286.3 32.7428 286.062C33.0111 285.764 33.0558 285.674 33.3539 285.242C33.6072 284.87 33.8308 284.497 34.0543 284.11C35.0082 282.441 35.7831 280.668 36.4836 278.879C37.2288 276.957 37.8845 274.99 38.4956 273.008C36.0961 272.367 33.6966 271.712 31.3121 271.071C31.2674 271.056 31.2525 271.041 31.2078 271.026L25.5742 287.045C26.066 287.239 26.6622 287.373 27.1987 287.433Z" fill="black"></path><path d="M9.47908 307.55C9.46425 307.55 9.43457 307.535 9.43457 307.55C9.43457 307.55 9.47908 307.564 9.53844 307.579C9.53844 307.579 9.53843 307.579 9.5236 307.579C9.50876 307.564 9.49392 307.564 9.47908 307.55Z" fill="black"></path><path d="M9.56785 307.594C9.55305 307.594 9.53824 307.594 9.52344 307.579C9.7011 307.683 9.64188 307.638 9.56785 307.594Z" fill="black"></path><path d="M9.47921 307.549C9.50902 307.549 9.53882 307.564 9.56863 307.579C9.77728 307.639 10.1499 307.743 10.1797 307.758C10.2691 307.773 10.6119 307.802 10.2095 307.773C10.2989 307.773 10.3734 307.788 10.4628 307.802C10.7013 307.817 10.9398 307.832 11.1782 307.817C11.8191 307.802 12.1917 307.743 12.8176 307.609C13.1604 307.534 13.5032 307.445 13.8459 307.34C14.0546 307.281 14.2632 307.206 14.4719 307.132C14.5166 307.117 14.6358 307.057 14.6954 307.042C14.7551 307.013 14.7998 306.983 14.8594 306.953C14.8892 306.923 14.919 306.893 14.9488 306.879C15.0084 306.819 15.0233 306.819 15.0382 306.804C15.0531 306.789 15.0382 306.774 15.068 306.73C15.1277 306.625 15.1873 306.506 15.2618 306.387C15.2767 306.327 15.3065 306.268 15.3214 306.193C15.3661 306.029 15.4108 305.865 15.4555 305.701C15.4704 305.642 15.5002 305.403 15.53 305.314C15.53 305.21 15.5599 304.971 15.5599 304.897C15.5748 304.539 15.5897 304.196 15.5748 303.839C15.5599 303.392 15.53 302.959 15.4853 302.527C15.4704 302.438 15.4704 302.334 15.4555 302.244C15.4555 302.229 15.4406 302.14 15.4406 302.095C15.4257 302.036 15.381 301.693 15.3661 301.603C15.068 299.815 14.5911 298.057 14.0397 296.328C12.5195 296.328 10.9994 296.328 9.47921 296.328C9.4494 296.328 9.4345 296.313 9.40469 296.313L8.86816 307.326C9.0172 307.355 9.25566 307.415 9.47921 307.549Z" fill="black"></path><path d="M9.5229 307.579C9.5377 307.594 9.55249 307.594 9.56729 307.594C9.5377 307.579 9.50811 307.564 9.47852 307.564C9.49331 307.564 9.50811 307.564 9.5229 307.579Z" fill="black"></path><path d="M59.8229 262.503L56.3652 275.273C56.4994 275.303 56.6335 275.333 56.7527 275.422C57.0061 275.601 57.2743 275.765 57.5575 275.929C57.6469 275.974 58.0493 276.182 58.1239 276.227C58.4964 276.376 58.8988 276.48 59.3012 276.555C59.3907 276.555 59.5695 276.57 59.644 276.57C59.7781 276.57 60.2402 276.495 60.106 276.54C60.2402 276.51 60.3594 276.495 60.4935 276.451C60.5978 276.421 60.7022 276.376 60.7916 276.346C61.0748 276.182 61.343 276.033 61.6113 275.84C61.6858 275.78 61.8348 275.646 61.8944 275.616C62.0286 275.482 62.1627 275.363 62.2968 275.214C62.431 275.08 62.5502 274.931 62.6843 274.782C62.744 274.707 62.7738 274.677 62.7887 274.662C62.8036 274.648 62.8185 274.618 62.8781 274.528C63.1165 274.186 63.3401 273.843 63.5487 273.485C63.7574 273.113 63.966 272.74 64.1598 272.368C64.2492 272.174 64.3535 271.98 64.443 271.786C64.4728 271.712 64.5771 271.474 64.6218 271.384C64.6516 271.31 64.741 271.101 64.741 271.071C64.7708 270.997 64.8006 270.907 64.8304 270.833C64.905 270.624 64.9795 270.43 65.054 270.222C65.1881 269.864 65.3074 269.492 65.4266 269.134C65.9035 267.644 66.2761 266.109 66.5742 264.574C64.3088 263.874 62.0584 263.188 59.8229 262.503Z" fill="black"></path></svg> 