<?xml version="1.0" encoding="UTF-8"?> <svg xmlns="http://www.w3.org/2000/svg" width="61" height="150" viewBox="0 0 61 150" fill="none"><g clip-path="url(#clip0)"><path d="M48.9998 150C42.2812 150 19.3816 148.23 17.6078 147.584C17.4993 147.175 17.3845 146.766 17.2696 146.351C17.2696 146.351 16.2743 142.854 16.0765 142.145L15.381 139.652C14.9727 138.176 14.5515 136.642 14.1177 135.146C13.8433 134.2 13.5434 133.248 13.2499 132.321C13.1032 131.848 12.6821 130.518 12.6821 130.518C12.5098 129.962 12.3375 129.406 12.1844 128.857C11.9164 127.891 11.6548 126.926 11.3932 125.961C10.8891 124.107 10.3659 122.196 9.81083 120.324C9.23659 118.387 8.72615 116.393 8.22847 114.469C7.92859 113.306 7.62233 112.104 7.3033 110.921C7.03532 109.931 6.7163 108.946 6.41003 107.994C6.21224 107.393 6.02082 106.792 5.83579 106.185C4.53417 101.896 3.4431 97.4414 2.58174 92.9352C2.10958 90.4489 1.84798 88.1671 1.78418 85.9427C1.74589 84.6388 1.72037 83.3286 1.69485 82.0246L1.68847 81.7882C1.65657 80.1647 1.61828 78.5092 1.57362 76.8857C1.48429 73.7858 1.37582 71.0118 1.24821 68.3976C1.20355 67.5028 1.12061 66.5951 1.04404 65.7131C0.986615 65.0739 0.92919 64.4731 0.884527 63.8723C0.820722 62.9199 0.769678 61.9548 0.718634 61.0216L0.559122 58.1901C0.463414 56.5858 0.374088 54.9559 0.316663 53.358C0.195434 50.0151 0.125248 47.0685 0.0869654 44.3585C0.0614435 42.2684 0.0805849 39.9993 0.15077 37.4171C0.182673 36.1388 0.252858 34.8413 0.323044 33.5821C0.361327 32.879 0.39961 32.1823 0.431512 31.4792C0.450653 31.1021 0.457034 30.725 0.469795 30.3479C0.482556 29.8494 0.495317 29.4275 0.514458 29.0057C0.527219 28.718 0.559122 28.424 0.584644 28.1428C0.603785 27.9255 0.629307 27.7081 0.642068 27.4972C0.718634 26.4298 0.7952 25.356 0.871766 24.2886C0.967473 22.908 1.20993 21.815 1.63104 20.8499C2.00111 19.9998 2.43499 19.5332 3.02199 19.335C3.46863 19.188 3.88974 19.1113 4.27257 19.1113C4.87872 19.1113 5.43382 19.3031 5.91235 19.6802C6.86943 20.4344 7.48834 21.4635 7.74356 22.7418L7.91583 23.5727C8.07534 24.3078 8.22847 25.0364 8.3178 25.7587C8.49645 27.2735 8.59216 28.6158 8.61768 29.8621C8.63682 30.9935 8.76443 32.1184 8.88566 33.1986C8.93033 33.5821 8.97499 33.9656 9.01327 34.3555C9.08346 35.0394 9.14088 35.7169 9.19831 36.4008C9.27487 37.2957 9.35782 38.2225 9.45991 39.1301C9.61304 40.5235 9.79807 41.9296 9.97673 43.2911L10.2383 45.33C10.3915 46.5061 10.5446 47.7205 10.7169 48.9093C10.9402 50.4497 11.1954 52.086 11.5208 54.0674C11.5527 54.2784 11.5336 54.4126 11.4379 54.5916C10.819 55.7676 10.4361 57.0268 10.2958 58.3499C10.1299 59.8903 10.1235 61.501 10.2575 63.2715L10.3213 64.1663C10.3915 65.1506 10.468 66.1733 10.6084 67.1768C10.7807 68.3912 10.9848 69.6184 11.189 70.8072C11.3741 71.913 11.5463 72.9549 11.6995 73.9903C12.0376 76.2721 12.5608 78.5412 13.0649 80.7399C13.2563 81.5644 13.4413 82.3762 13.62 83.1879C13.9773 84.8114 14.2963 86.1217 14.6345 87.2978C14.8259 87.9561 15.0811 88.5889 15.3363 89.2025C15.4257 89.4134 15.515 89.6307 15.5979 89.8417C16.0446 90.973 16.6188 92.2897 17.4929 93.4785C18.4819 94.8208 19.758 95.6517 21.283 95.9329C21.602 95.9905 21.9274 96.0224 22.2464 96.0224C23.0312 96.0224 23.816 95.8499 24.5689 95.5047C25.4048 95.1212 26.2151 94.6738 26.9935 94.2328C27.1466 94.1433 27.2104 94.1369 27.2487 94.1369C27.287 94.1369 27.338 94.1497 27.3955 94.1816C28.059 94.5204 28.8247 94.7313 29.8073 94.8464C30.0434 94.8719 30.2795 94.8847 30.5091 94.8847C31.8682 94.8847 33.1507 94.4181 34.4332 93.4594C35.9198 92.3472 36.8577 90.858 37.3171 88.9085C37.4192 88.4675 37.5277 88.0264 37.6425 87.5854C37.7893 86.991 37.9169 86.4924 38.0317 85.9939C38.0573 85.898 38.0764 85.8021 38.0892 85.6999C38.2742 85.9683 38.4592 86.2304 38.6507 86.4988C39.0335 87.0421 39.4163 87.5854 39.7736 88.1287C40.4053 89.0938 40.8966 90.027 41.273 90.9794C41.6112 91.8295 42.128 92.5645 42.6321 93.2357C42.7916 93.4402 42.9384 93.6575 43.0915 93.8684C43.519 94.4756 43.9529 95.0892 44.5399 95.5942C44.5909 95.6517 44.6292 95.6901 44.6738 95.7156C44.6738 95.7156 46.5944 97.1921 47.2579 97.6971C47.4238 97.8185 47.6025 97.9399 47.8194 97.9719C47.8769 97.9847 47.9407 97.9847 48.0108 97.9847C48.1831 97.9847 48.4256 97.9463 48.5978 97.7801C48.7318 97.6523 48.7956 97.4861 48.7893 97.3136C48.7829 97.109 48.668 96.9109 48.4702 96.7447L47.9151 96.2781C47.4175 95.8626 46.907 95.4344 46.3902 95.0381C45.8479 94.6227 45.2864 94.1561 44.8716 93.5616L44.3995 92.8905C43.9592 92.2577 43.5509 91.6825 43.168 91.1072C43.0532 90.941 42.9703 90.7557 42.8809 90.5575C42.8235 90.4425 42.7725 90.3274 42.715 90.2124L42.345 89.4837C41.9877 88.7679 41.6303 88.052 41.2348 87.4001C40.9668 86.9526 40.6414 86.518 40.3606 86.1345C40.1246 85.8149 39.8821 85.4826 39.6652 85.1438C39.142 84.332 38.6443 83.5523 38.2742 82.7405C37.4001 80.8166 35.9645 79.4935 33.8717 78.6882C31.4279 77.7486 28.8375 76.7132 26.4512 75.2686C25.6089 74.7573 24.9645 74.3035 24.4158 73.8241C22.3166 71.9897 20.6641 70.1169 19.3561 68.0908C18.8711 67.3366 18.4947 66.4929 18.2203 65.5213C18.0608 64.9589 18.0863 64.3389 18.3097 63.5783C18.5393 62.7921 18.9222 62.0379 19.5092 61.2325L19.6687 61.3603C20.0069 61.5904 20.3259 61.8078 20.6321 62.0506C22.2337 63.3418 24.0457 64.3644 25.6408 65.2721C26.4639 65.7386 27.3891 66.1861 28.3781 66.6015C28.7737 66.7677 29.182 66.8572 29.584 66.9403C29.7754 66.985 29.9668 67.0234 30.1518 67.0745C30.2412 67.1001 30.3369 67.1129 30.4262 67.1129C30.7963 67.1129 31.1025 66.8828 31.211 66.512C31.5236 65.4766 31.8172 64.4411 32.0915 63.476C32.1362 63.3162 32.1681 63.1628 32.2 62.9966C33.3229 63.297 34.4714 63.4952 35.6327 63.5783C36.3409 63.6294 37.9105 63.7508 37.9105 63.7508C38.8357 63.8211 39.78 63.8978 40.7179 63.9554C42.0642 64.0448 43.2 64.5562 44.2017 65.5213C45.2928 66.576 46.2753 67.8287 47.2069 69.3627C47.4494 69.7654 47.6918 70.1745 47.9343 70.5835C48.3873 71.3569 48.8084 72.0664 49.2423 72.7567C49.8357 73.6835 50.4546 74.5656 51.0799 75.3709C51.4946 75.9078 51.9795 76.3808 52.4453 76.841L52.6239 77.02C53.0387 77.429 53.4789 77.8317 53.9766 78.2472C54.4934 78.6818 54.9783 79.2059 55.5462 79.9537L55.6483 80.088C56.6309 81.3791 57.6454 82.715 58.4748 84.1403C59.2915 85.5529 59.7127 87.0613 60.0125 88.3524C60.338 89.765 60.2741 91.2223 60.2167 92.6348L60.1784 93.5361C60.1146 95.5111 59.8786 97.4542 59.4893 99.3141L59.4192 99.5826C59.1958 100.65 58.9598 101.756 58.6663 102.823C58.2898 104.217 57.8878 105.629 57.505 106.991C56.9946 108.799 56.4969 110.57 56.0311 112.315C55.7631 113.312 55.5653 114.335 55.3739 115.319C55.3739 115.319 55.1953 116.227 55.1123 116.61L54.7869 118.138C54.5189 119.384 54.2446 120.669 54.0085 121.934C53.7533 123.283 53.5172 124.664 53.2875 125.999L52.9302 128.064L52.5984 129.911C52.3751 131.151 52.1454 132.391 51.954 133.625C51.7817 134.724 51.6413 135.843 51.501 136.929L51.2968 138.54C51.2585 138.802 51.2266 139.032 51.1819 139.237C51.0224 140.036 50.8821 140.828 50.8757 141.665C50.8757 141.959 50.8183 142.279 50.7672 142.586L50.7289 142.797C50.4035 144.81 50.2887 146.945 50.378 149.502C50.3844 149.655 50.378 149.802 50.3716 149.943C50.2121 149.968 49.8357 150 48.9998 150Z" fill="black"></path><path d="M51.9983 74.0093C51.7112 73.6641 51.4368 73.319 51.1816 72.9547C50.6711 72.226 50.0076 71.2545 49.4397 70.2446C48.5145 68.6083 47.4235 67.0487 46.4664 65.6745C45.4391 64.2044 44.2332 63.2713 42.7785 62.7983C42 62.549 41.1514 62.3892 40.1114 62.2933H40.0987V62.1783C40.0923 61.6733 40.0859 61.2898 40.105 60.8936C40.188 59.3851 40.0859 57.7744 39.786 55.8186C39.6137 54.6936 39.518 53.6646 39.5053 52.6802C39.467 49.657 39.5627 46.378 39.7924 42.6517C39.8307 42.0509 39.8243 41.4309 39.8179 40.8365C39.8115 40.4785 39.8115 40.1334 39.8115 39.7882C39.8179 39.2513 39.8307 38.708 39.8498 38.1711C39.8498 38.1711 40.105 27.3948 40.1178 26.5191C40.1369 25.5987 40.1497 24.6847 40.1625 23.7643C40.188 21.8532 40.2199 19.8781 40.3028 17.9415C40.4049 15.5254 40.6155 13.691 40.9792 12.0036C41.0238 11.799 41.043 11.5945 41.0621 11.39C41.0749 11.2174 41.0876 11.0768 41.1132 10.9362C41.2216 10.297 41.3173 9.65144 41.413 9.01227C41.6491 7.43353 41.8916 5.80365 42.3127 4.24408C42.5169 3.48986 42.7721 2.78677 43.0783 2.154C43.6207 1.04184 44.5969 0.338759 45.9815 0.0767002C46.2941 0.0319584 46.6323 0 46.9896 0C47.1044 0 47.2193 0.00639168 47.3341 0.0127834C48.1508 0.0575251 48.757 0.447418 49.2547 1.23999C49.5992 1.80245 49.88 2.39688 50.1033 3.04883C50.9264 5.47767 51.0157 7.9896 51.0412 10.5591C51.0476 11.3516 51.054 12.1506 51.054 12.9432C51.0603 14.6881 51.0667 16.4905 51.1241 18.261C51.1688 19.6289 51.2773 20.9903 51.3857 22.3134C51.4304 22.8247 51.4687 23.336 51.507 23.8474C51.5389 24.2373 51.5708 24.6208 51.6091 25.0107C51.6792 25.7585 51.7431 26.4552 51.7686 27.1391C51.8962 30.418 52.0557 34.726 52.1323 39.034C52.1514 40.1014 52.1386 41.188 52.1259 42.2362V42.3513C52.1195 43.195 52.1067 44.0643 52.1131 44.9271C52.1195 45.79 52.0557 46.6721 51.9919 47.5285C51.9536 48.0846 51.9089 48.6535 51.8834 49.216C51.8515 50.0149 51.8388 50.8267 51.826 51.6064C51.8132 52.1945 51.8069 52.7889 51.7877 53.3769C51.7622 54.1056 51.7367 54.8342 51.7112 55.5629C51.6729 56.4897 51.6346 57.442 51.6154 58.3816L51.5899 59.3596C51.5325 61.5008 51.4751 63.7123 51.6154 65.9046C51.641 66.2562 51.6473 66.6141 51.6601 66.9657C51.6729 67.2661 51.6792 67.5281 51.692 67.7902L51.9983 74.0093Z" fill="black"></path><path d="M22.5147 94.2901C21.8511 94.2901 21.1556 94.1559 20.3708 93.881C19.8476 93.6957 19.3755 93.325 18.9289 92.7433C18.0994 91.6695 17.5443 90.4487 17.0466 89.2918C16.2682 87.483 15.6812 85.591 15.2537 83.5073C15.0112 82.3313 14.7432 81.136 14.488 79.9855C14.2073 78.7328 13.9202 77.4352 13.6649 76.1569C13.4735 75.2109 13.3268 74.2394 13.18 73.3062C13.0971 72.7821 13.0205 72.2708 12.9376 71.7594C12.8419 71.1906 12.7398 70.6153 12.6313 70.0465C12.4271 68.9279 12.2166 67.771 12.0762 66.6397C11.687 63.5078 11.6359 60.9319 11.9231 58.5478C12.0571 57.4165 12.223 56.4833 12.6058 55.6013C13.0014 54.6809 13.6267 54.0033 14.4689 53.5879C14.7879 53.4281 15.2026 53.377 15.4834 53.3578C15.879 53.3258 16.2427 53.3066 16.5936 53.3066C17.8378 53.3066 18.8969 53.524 19.8349 53.9714C20.39 54.2334 20.8047 54.5402 21.111 54.9173C21.7426 55.6907 22.3041 56.3938 22.8082 57.1417C23.057 57.5124 23.1783 57.9534 23.2803 58.4328C22.9358 58.3433 22.5976 58.2985 22.2531 58.2985C21.5512 58.2985 20.8366 58.4839 20.0837 58.8674C18.5141 59.66 17.5251 60.9767 17.0594 62.8942C16.9318 63.4183 16.7978 64.0447 16.7595 64.6774C16.7021 65.5595 16.9573 66.3776 17.2444 67.2022C17.8442 68.9279 18.9735 70.3021 20.071 71.6316C21.2577 73.0697 22.5402 74.3608 23.8865 75.473C23.9694 75.5369 24.0013 75.588 23.995 75.767L23.9886 75.9268C23.9439 77.2563 23.8993 78.6305 23.8674 79.9855C23.8418 80.9059 23.8291 81.8327 23.8163 82.7531L23.7972 83.9931L18.9033 85.0605C18.4631 85.1564 18.0164 85.2523 17.5826 85.3673C16.9637 85.5335 16.6957 85.9937 16.8552 86.6393C17.1423 87.8153 17.506 88.8252 17.9526 89.7456C18.495 90.8642 19.2734 91.8293 20.3198 92.6922C21.1748 93.3953 22.151 93.4912 22.9996 93.4912L23.3378 93.4848C23.4845 93.4784 23.6313 93.4656 23.778 93.4528C23.8929 93.44 24.0077 93.4272 24.129 93.4272C24.7479 93.4017 25.2902 93.1971 25.756 92.9734L25.89 93.0949C25.6092 93.2866 25.3157 93.4336 25.0286 93.5806C24.8946 93.6509 24.7606 93.7149 24.6266 93.7852C23.9567 94.1175 23.2676 94.2901 22.5147 94.2901Z" fill="black"></path><path d="M38.3382 62.2292C37.815 62.1908 37.3173 62.1589 36.8132 62.1397C34.6822 62.0566 32.6085 61.4238 30.605 60.8166L30.2669 60.7144C29.0227 60.3372 27.7785 59.9537 26.5407 59.5702L25.105 59.1292C24.9519 58.6307 24.9264 58.2408 25.0221 57.8573C25.4368 56.1443 26.0047 54.6359 26.7512 53.2425C27.2936 52.2262 28.0847 51.5039 29.163 51.0246C30.1648 50.5835 31.1729 50.3662 32.2448 50.3662C33.2466 50.3662 34.2802 50.5516 35.4032 50.9415C35.9774 51.1396 36.3858 51.5678 36.8515 52.06L37.0302 52.2518C37.7895 53.0443 38.0064 54.0926 38.1787 55.1983C38.3446 56.2402 38.4658 57.3012 38.587 58.3303L38.6636 58.9886C38.6955 59.257 38.7083 59.5575 38.7019 59.9282C38.6891 60.5546 38.67 61.1809 38.6444 61.8393L38.6317 62.2547L38.3382 62.2292Z" fill="black"></path><path d="M30.0432 93.2993C29.2201 93.2993 28.48 93.0628 27.7909 92.5771C26.4574 91.6375 25.6917 90.308 25.4492 88.5119C25.2961 87.3678 25.2961 86.1981 25.2961 85.0604C25.2961 84.4532 25.2961 83.846 25.2706 83.2388C25.2323 82.0755 25.3025 80.8867 25.3727 79.7425C25.4173 79.0203 25.462 78.298 25.4811 77.5821C25.4875 77.2562 25.4875 76.9238 25.4875 76.5723L25.6534 76.6745C26.2149 77.0069 26.7381 77.3137 27.2677 77.6077C29.2329 78.6879 30.9237 79.5124 32.774 80.043C33.5078 80.2539 34.4521 80.5735 35.2305 81.1935C35.6325 81.513 35.926 81.8454 36.1238 82.2033C36.1238 82.2033 36.5513 82.9576 36.6406 83.1173C36.8257 83.4561 36.8895 83.7501 36.8512 84.0697C36.6917 85.3417 36.4301 86.6008 36.06 87.8025C35.9388 88.1924 35.792 88.5822 35.6453 88.9594C35.5049 89.3109 35.3709 89.6624 35.2561 90.0204C34.9051 91.0942 34.0757 91.8164 33.2334 92.43C32.4614 92.9925 31.5171 93.1523 30.6174 93.261C30.4196 93.2929 30.2282 93.2993 30.0432 93.2993ZM26.5212 87.6746C26.5148 87.9495 26.5084 88.2115 26.5403 88.4736L26.5658 88.6845C26.6233 89.2086 26.6871 89.7519 26.8785 90.2697C27.2103 91.1645 27.8164 91.7653 28.6395 91.9954C29.0032 92.0977 29.335 92.1936 29.6731 92.1936L30.5473 92.1999C30.962 92.1999 31.4533 92.1872 31.951 92.0913C32.8315 91.9187 33.5397 91.3307 34.1139 90.3016C34.6691 89.3109 35.0072 88.1924 35.1221 86.9843C35.2178 86 35.3262 85.0093 35.4219 84.1336C35.5049 83.4178 35.2943 83.1238 34.6052 82.9767C32.3338 82.4846 30.0432 82.2289 27.6952 81.9924C27.6059 81.9796 27.5229 81.9796 27.4527 81.9796C26.7891 81.9796 26.6807 82.4974 26.6233 82.7786C26.4637 83.5712 26.5403 86.3643 26.5084 86.7606L26.5212 87.6746Z" fill="black"></path><path d="M29.8771 65.5021C29.507 65.387 29.2263 65.3039 28.9583 65.2081C27.9055 64.8373 26.9421 64.294 25.8893 63.6741L25.1364 63.2394C24.4537 62.8431 23.7646 62.4468 23.101 62.025C22.4247 61.5904 21.7675 61.1366 21.0784 60.6572L20.6445 60.3568C21.1167 60.0564 21.5059 59.9157 21.9079 59.8902C21.9717 59.8838 22.0419 59.8838 22.112 59.8838C22.6352 59.8838 23.1712 60.0052 23.7518 60.2609C24.4792 60.5805 25.2385 60.8361 25.9659 61.079L26.3423 61.2069C27.4398 61.5776 28.5436 61.9419 29.6602 62.3126L30.7129 62.6642L29.8771 65.5021Z" fill="black"></path><path d="M23.0695 91.8294C21.9912 91.823 21.1745 91.4076 20.6449 90.6022C19.8665 89.407 19.0689 88.1286 18.584 86.7416C18.852 86.6649 19.1008 86.5946 19.3624 86.5435C20.6321 86.2878 21.9082 86.045 23.1843 85.8021L23.7905 85.687C23.7841 85.9746 23.7841 86.1984 23.7968 86.4221C23.8351 87.2018 23.8862 88.1095 23.9627 89.0107C24.0202 89.7329 24.2562 90.4488 24.6965 91.2606L24.8943 91.6313C24.671 91.7208 24.4221 91.7719 24.135 91.7975C23.8798 91.823 23.5991 91.8294 23.2354 91.8294H23.0695Z" fill="black"></path><path d="M30.3307 90.7108C29.8713 90.7108 29.4502 90.6469 29.0482 90.5254C28.5123 90.3593 28.1932 89.9374 28.1231 89.311C28.0592 88.7422 28.0529 88.1541 28.0465 87.5789L28.0401 87.042C28.0273 86.4475 28.0273 85.8531 28.0273 85.2587V83.5713C29.5523 83.6863 32.7936 84.1785 33.8783 84.4533C33.8464 84.7346 33.8081 85.0286 33.7698 85.3162L33.6549 86.1343C33.5847 86.6521 33.5209 87.1059 33.4635 87.5661C33.3806 88.2756 33.1509 88.9531 32.7808 89.5795C32.4107 90.2122 31.8748 90.551 31.09 90.6533C30.8348 90.6916 30.5732 90.7108 30.3307 90.7108Z" fill="black"></path></g><defs><clipPath id="clip0"><rect width="60.1744" height="150" fill="white" transform="translate(0.0800781)"></rect></clipPath></defs></svg> 