<svg width="121" height="161" viewBox="0 0 121 161" fill="none" xmlns="http://www.w3.org/2000/svg"><path d="M17.87 52.111l-8.985-6.917 11.201-.162.625-1.967-10.315-7.344c-1.592-1.135-2.74-2.19-3.325-3.387l-.04-.02-1.189 3.813.04.02c1.19-.912 2.841-.872 4.957.63l5.983 4.239-7.837.08c-1.974 0-3.364-.547-4.09-1.723l-.04-.02-2.034 6.49.04.02c1.188-.587 2.76-.669 4.432-.669h.645l6.265 4.788-7.998-.02c-1.974 0-3.384-.508-4.11-1.705l-.06.02L0 54.77l.04.02c1.189-.588 2.74-.67 4.433-.67h12.772l.625-2.008zm-3.526-21.116l5.682 3.854c1.793 1.217 2.377 1.907 3.344 3.347l.04.02 3.224-4.787-.04-.02c-1.653-.345-2.6-.67-4.332-1.846l-5.681-3.874c-1.733-1.177-2.378-1.948-3.325-3.368l-.04-.02-3.223 4.787.04.02c1.652.366 2.518.65 4.311 1.887zm6.689-9.088l4.573 5.133c1.43 1.602 1.854 2.454 2.418 4.056l.02.041 8.522-7.668-2.519-4.584-.221.122c.302 2.008.403 5.639-.705 6.714l-1.773 1.805-7.354-8.276c-1.41-1.582-1.833-2.434-2.417-4.057l-.02-.04-4.271 3.854.02.04c1.53.75 2.296 1.238 3.727 2.86zM34.49 10.71l2.64 6.816c.745 1.927.846 2.84.786 4.483l.02.04 6.084-2.393c5.722-2.252 7.938-6.288 6.044-11.197-1.894-4.93-6.407-6.268-11.947-4.077-2.74 1.075-3.888 1.622-6.044 2.474l.02.04c1.129 1.177 1.652 1.847 2.398 3.814zm3.748-5.801c3.707-1.521 6.004.446 7.938 5.396 1.692 4.381 1.591 7.262-2.297 8.783-.1.04-.947.345-1.652.548l-5.44-14.058c.565-.263 1.29-.608 1.451-.67zm25.405 11.927c3.203.305 6.225-.73 6.568-4.36.302-3.186-1.814-4.768-3.889-6.107-1.954-1.196-3.848-2.19-3.686-3.975.12-1.299 1.168-2.05 2.498-1.927 1.652.162 3.042 1.703 4.492 4.766l.242-.04-.181-4.26a11.967 11.967 0 00-3.425-.872c-3.123-.304-6.165.649-6.487 4.037-.282 2.961 1.853 4.422 3.989 5.78 1.894 1.197 3.666 2.232 3.485 4.2-.14 1.42-1.188 2.474-2.961 2.312-1.975-.203-3.506-1.886-5.279-5.64l-.221.041.14 4.565c1.17.69 2.861 1.298 4.715 1.48zm14.767 4.159c4.332 2.11 9.308.487 11.383-3.854 2.075-4.321.302-9.311-4.03-11.42-4.35-2.13-9.327-.427-11.402 3.894-2.095 4.34-.302 9.27 4.05 11.38zm-.22-9.495c1.994-4.158 4.553-6.653 7.353-5.294 2.8 1.36 2.398 4.93.403 9.088-2.014 4.158-4.553 6.612-7.313 5.274-2.76-1.38-2.438-4.91-.443-9.067zm13.356 19.11c3.304 3.367 6.064 2.19 8.743-.467l3.647-3.63c1.571-1.563 2.659-1.827 4.714-2.07v-.06l-3.042-3.084-.04.04c-.161 2.11-.524 3.145-2.095 4.727l-3.768 3.732c-2.176 2.17-4.674 3.246-6.79 1.096-1.57-1.603-1.692-3.692 1.069-6.45l4.11-4.098c1.53-1.522 2.437-2.05 3.928-2.617l.04-.04-4.07-4.139-.04.02c-.685 1.583-1.088 2.374-2.639 3.915l-3.969 3.956c-3.163 3.144-2.498 6.41.202 9.169zm10.375 4.685c-1.894.994-2.82 1.197-4.513 1.36l-.04.02 5.279 10.203 5.036-1.339-.06-.243c-1.995-.203-5.52-.994-6.306-2.333l-1.31-2.17 9.792-5.132c1.873-.994 2.8-1.197 4.512-1.36l.041-.02-2.64-5.111-.04.02c-1.108 1.318-1.773 1.927-3.687 2.941l-6.064 3.164zm18.837 16.33c-.624-3.104-2.417-5.74-5.741-5.072-2.902.589-3.667 3.084-4.332 5.538-.584 2.17-1.048 4.179-2.982 4.584-1.39.285-2.699-.425-3.062-2.17-.403-1.968.766-3.915 3.808-6.735l-.101-.202-4.311 1.46c-.303 1.319-.383 3.124-.02 4.95.644 3.184 2.518 5.78 6.064 5.05 3.122-.628 3.989-3.123 4.653-5.517.565-2.231.947-4.34 2.7-4.706 1.269-.264 2.297.528 2.559 1.846.322 1.643-.726 3.408-3.224 5.72l.121.223 3.989-1.42c.161-1.095.121-2.332-.121-3.55zM6.749 86.9l9.449.243.04-1.176c-.806-.365-1.672-1.36-1.672-2.78l-1.128-.02c-.04 1.197.443 2.191.906 2.597L6.79 85.56l-.04 1.34zm4.412 12.11c3.083.081 4.916-1.075 4.997-3.53.06-2.475-1.713-3.712-4.795-3.793-3.083-.081-4.916 1.075-4.997 3.53-.08 2.474 1.713 3.712 4.795 3.793zm.161-6.005c2.237.061 3.788.63 3.728 2.435-.04 1.825-1.612 2.292-3.849 2.231-2.236-.06-3.787-.609-3.727-2.434.04-1.805 1.612-2.292 3.848-2.231zm4.533 14.017c.06-2.474-1.712-3.712-4.794-3.793-3.083-.081-4.916 1.075-4.997 3.53-.06 2.474 1.713 3.712 4.795 3.793 3.082.081 4.936-1.055 4.996-3.53zm-8.703-.223c.04-1.805 1.612-2.292 3.848-2.231 2.236.061 3.788.629 3.727 2.434-.04 1.826-1.611 2.292-3.848 2.231-2.216-.061-3.767-.608-3.727-2.434zm3.748 15.133c-1.995.568-2.297 1.886-1.995 2.981.302 1.096 1.249 2.069 3.243 1.522 1.995-.568 2.297-1.887 1.975-3.002-.282-1.075-1.23-2.049-3.224-1.501zm1.007 3.57c-1.108.304-1.874.101-2.136-.791-.262-.913.282-1.481 1.41-1.806 1.108-.304 1.874-.101 2.136.791.242.893-.302 1.481-1.41 1.806zm6.083-3.976l-10.737-3.205.302 1.095 10.738 3.205-.302-1.095zm-4.613-7.019c-1.994.568-2.296 1.887-1.974 2.982.302 1.096 1.249 2.069 3.243 1.522 1.995-.568 2.297-1.887 1.995-3.003-.322-1.095-1.27-2.069-3.264-1.501zm2.398 1.745c.262.913-.282 1.481-1.41 1.805-1.109.305-1.874.102-2.136-.791-.262-.913.282-1.481 1.41-1.805 1.108-.325 1.874-.122 2.136.791zm9.348 18.398l-1.834-2.333-7.414 5.903.826 1.035 2.76-2.191 1.008 1.278c1.51 1.927 3.123 2.393 4.694 1.156 1.572-1.237 1.47-2.921-.04-4.848zm-.806 3.793c-.967.771-1.834.67-2.982-.811l-.987-1.258 2.901-2.312.987 1.257c1.149 1.481 1.048 2.353.08 3.124zm10.395 5.376l-3.606 4.686c-1.168 1.501-2.176 1.582-3.425.608-1.249-.994-1.43-1.988-.262-3.489l3.627-4.686-1.048-.811-3.747 4.868c-1.511 1.948-1.048 3.652.745 5.051 1.793 1.4 3.546 1.42 5.037-.527l3.747-4.869-1.068-.831zm7.475 4.118l-2.72-1.177-3.747 8.763 1.209.527 1.39-3.265 1.652.71 1.007 4.3 1.49.649-1.127-4.605c1.41.264 2.558-.223 3.163-1.643.806-1.846-.081-3.286-2.317-4.259zm1.088 3.712c-.484 1.136-1.33 1.46-3.022.71l-1.471-.629 1.47-3.428 1.471.629c1.713.77 2.035 1.582 1.552 2.718zm4.855 8.296L54.355 161l.182-1.116-4.916-.831.524-3.144 4.07.689.18-1.115-4.069-.69.484-2.921 4.915.832.182-1.096-6.226-1.055-1.55 9.392zm24.357-5.254l-1.108.203c.181.933.141 1.765-.08 2.455l-2.539-2.069c1.088-.974 1.773-1.785 1.572-2.901-.242-1.278-1.41-1.826-2.68-1.582-1.591.304-2.236 1.379-2.015 2.535.162.832.867 1.481 1.592 2.069-1.128.994-2.095 2.009-1.853 3.368.261 1.48 1.651 2.19 3.485 1.846 1.229-.224 2.115-.852 2.72-1.623l.947.771 1.45-.264-1.833-1.481a6.227 6.227 0 00.342-3.327zm-5.701-1.602c-.141-.73.242-1.197 1.027-1.359.685-.122 1.23.223 1.35.913.121.628-.04 1.075-1.148 2.048-.665-.547-1.129-.973-1.23-1.602zm2.014 6.491c-1.289.243-2.054-.223-2.216-1.136-.181-.953.423-1.602 1.37-2.454l2.84 2.373a3.247 3.247 0 01-1.994 1.217zm16.42-15.863l4.07 6.613-7.858-4.239-1.37.852 4.976 8.093 1.068-.669-4.07-6.613 7.858 4.24 1.37-.852-4.977-8.094-1.067.669zm6.205-5.375l4.392 9.169.947-.994-1.068-2.09 2.901-3.063 2.136.974.967-1.035-9.308-3.975-.967 1.014zm6.165 2.576l-2.398 2.515-2.337-4.645 4.735 2.13zm2.921-13.084l-.987-.608-3.747 6.187.967.588 1.53-2.515 7.112 4.361.685-1.136-7.091-4.361 1.531-2.516zm8.401-8.397l-5.802-1.927-.403 1.257 5.601 1.866c1.793.589 2.216 1.522 1.712 3.043-.504 1.521-1.37 2.029-3.183 1.42l-5.601-1.846-.403 1.258 5.802 1.927c2.337.771 3.768-.223 4.473-2.394.685-2.17.121-3.834-2.196-4.604zm-1.672-12.719c-1.995-.142-3.042 1.177-3.203 3.631l-.202 2.962 9.429.628.08-1.318-3.505-.223.121-1.806 3.687-2.393.1-1.623-3.928 2.596c-.222-1.419-1.048-2.353-2.579-2.454zm1.491 5.599l-3.687-.244.101-1.602c.121-1.887.765-2.455 2.014-2.374 1.209.081 1.793.771 1.673 2.617l-.101 1.603zm-4.392-12.678l9.368 3.833.04-1.359-2.176-.831.101-4.22 2.216-.73.041-1.42-9.55 3.327-.04 1.4zm6.245-2.252l-.08 3.469-4.815-1.866 4.895-1.603zm2.337-7.992l-8.32-.223-.04 1.338 9.448.244.161-5.883-1.128-.02-.121 4.544zM63.844 74.932c.161-1.035.302-1.948.363-2.333-3.123-1.44-6.004-2.637-7.797-3.327.323 1.075 1.693 3.347 7.434 5.66zm3.646-19.717c-.422.913.041 3.448-1.208 4.523-1.25 1.076-2.055 1.197-2.055 1.197l1.31 11.157c3.001 1.4 6.124 2.962 8.743 4.483-4.654-23.571-4.613-23.55-4.613-23.55s-1.753 1.277-2.176 2.19zm-7.856 45.032c.443-.223.745-.547.866-.73a256.84 256.84 0 01-1.773-4.666l-1.49.994c.624 2.191 1.692 4.402 2.397 4.402zm4.633-4.909c-.282-.953-.765-2.576-1.31-4.401-.382.243-.886.547-1.208.75.161 1.258.927 3.793 1.511 4.24.363-.163.705-.325 1.007-.589z" fill="#000"/><path d="M55.625 98.888c.06.223.08.446.08.67.947.567 1.814.872 2.559.933-1.169-1.36-1.914-4.057-2.075-4.747-.06-.203.04-.426.201-.548l1.975-1.338c-.484-1.34-.927-2.597-1.189-3.47-.846-2.84-5.6-16.369-6.467-17.91-.504-.893-1.31-1.481-2.055-1.522-.564-.02-1.088.264-1.531.852-.786 1.095-1.189 4.32-.866 6.958.262.101.523.223.785.365 1.834 1.034 4.352 3.63 5.984 10.061 1.249 4.868 1.894 7.18 2.236 8.438.202.609.302.974.363 1.258zm-2.237-4.361l-1.712 1.42c.443 1.866 1.39 4.523 2.155 4.929.04.02.06.02.081.02.181-.101.343-.203.463-.365.303-.365.403-.872.262-1.42-.06-.284-.16-.629-.322-1.217-.181-.69-.483-1.724-.927-3.367z" fill="#000"/><path d="M49.702 70.185c.745.325 1.41.954 1.893 1.785.988 1.725 5.823 15.62 6.568 18.135.423 1.42 1.39 4.036 2.176 6.126.242.04 1.007.142 1.894-.02-1.008-1.44-1.491-4.422-1.511-4.767a.54.54 0 01.221-.447c.303-.203 1.21-.77 1.713-1.075-1.23-4.138-2.64-8.824-2.66-8.905-.04-.101-.02-.203.02-.304-3.223-2.353-6.084-6.126-4.673-12.293v-.02c0-.02.02-.04.02-.06l.06-.122.06-.061c.02-.04.061-.061.101-.081l.02-.02c.02-.021.04-.021.06-.021.041-.02.061-.02.102-.04h.181c.02 0 .02.02.04.02h.04c.363.142.806.304 1.27.487-.08-.244-.141-.447-.222-.67-.504-1.359-1.108-2.231-1.873-2.677-.04-.02-.081-.02-.121-.041-.766-.385-1.713-.406-2.922-.04-2.68.79-2.518 4.3-2.457 5.111z" fill="#000"/><path d="M74.603 77.914c-2.74-1.643-6.185-3.368-9.45-4.889-.1.568-.261 1.603-.422 2.678a.565.565 0 01-.242.365.554.554 0 01-.262.06c-.06 0-.12-.02-.181-.04-4.976-1.907-7.132-3.895-8.079-5.375-.504 7.464 6.306 10.446 9.75 11.927l.505.223a.508.508 0 01.282.588c-1.552 5.68 1.692 7.465 1.732 7.486a.523.523 0 01.222.69c-.08.182-.262.263-.443.263a.534.534 0 01-.242-.06c-.161-.082-3.828-2.09-2.337-8.216l-.121-.04c-1.088-.467-2.599-1.137-4.15-2.09.806 2.677 3.465 11.522 4.13 13.854.06.183 0 .365-.121.507a4.716 4.716 0 01-1.733 1.096c-.02 0-.04.02-.04.02a6.206 6.206 0 01-2.136.365c-.2 0-.382 0-.543-.02.463 1.197.785 2.069.805 2.09.06.121.04.283-.02.405-.02.04-.564 1.176-1.954 1.582a3.518 3.518 0 01-1.047.142c-.907 0-1.935-.324-3.023-.933-.08.223-.201.426-.342.609-.201.263-.463.446-.766.608-.02.02-.04.041-.08.061h-.02a2.667 2.667 0 01-1.33.284c-1.229-.041-4.271-.791-5.742-6.978-1.269-5.274-1.833-6.166-2.599-6.978-.181-.203-.181-.527.02-.71.202-.182.524-.182.706.02.967 1.035 1.571 2.11 2.86 7.445 1.19 4.93 3.284 5.984 4.433 6.166-1.21-1.643-1.995-5.152-1.995-5.213a.53.53 0 01.161-.507l2.317-1.927a436.587 436.587 0 00-1.047-3.996c-1.21-4.747-3.184-8.114-5.52-9.453-1.35-.77-2.438-.69-3.123-.486a2.542 2.542 0 00-.927.486c-.423.325-.745.812-1.007 1.44-.121.285-.222.61-.303.974-.02.061-.04.102-.04.163-.282 1.338-.342 3.123-.201 5.436.12 2.13.644 4.888 1.51 8.296 1.109 4.443 2.78 9.96 4.896 16.613 3.868 12.151 12.028 10.508 12.108 10.488a.52.52 0 01.605.385.524.524 0 01-.383.609c-.02 0-.484.101-1.229.101-1.027 0-2.619-.183-4.372-1.014 0 .852-.1 7.343-1.39 12.658 4.674.872 20.53-5.721 20.53-5.721l2.558-19.838c0 .02 11.786-15.417-1.168-32.7zM67.41 99.679c-.221.102-5.298 2.718-3.646 9.798a.508.508 0 01-.383.608c-.04 0-.08.021-.121.021-.222 0-.443-.163-.483-.386-1.854-7.891 4.13-10.913 4.19-10.954a.498.498 0 01.665.224.49.49 0 01-.222.69zm-4.634-64.404c-1.57.913-6.023 3.266-2.8 11.563.826 2.13 1.612 3.712 1.652 6.166.04 2.455-1.007 6.775 2.377 6.674 3.385-.102 1.41-4.017 2.68-5.761 1.27-1.724 1.672-1.319 2.015-4.584.362-3.266 1.913-1.481 1.571-5.964-.363-4.483-.705-5.761-1.874-7.384-1.168-1.623-4.05-1.623-5.62-.71z" fill="#000"/></svg>