<?xml version="1.0" encoding="UTF-8"?> <svg xmlns="http://www.w3.org/2000/svg" width="200" height="200" viewBox="0 0 200 200" fill="none"><circle cx="100" cy="100" r="100" fill="black"></circle><g clip-path="url(#clip0)"><path d="M101.761 18.6751C102.029 15.2302 103.659 13.2061 106.506 13.4276C108.549 13.588 110.049 14.7949 109.957 17.4682L108.427 17.3537C108.396 15.742 107.845 14.9171 106.452 14.8101C104.026 14.6192 103.544 16.9412 103.399 18.8278C103.23 20.9971 103.475 23.0288 105.71 23.2045C106.705 23.2809 107.401 22.9525 108.013 22.4636L108.197 20.0805L105.679 19.8895L105.779 18.5758L109.827 18.8889L109.375 24.6787L108.136 24.587L108.228 23.4031C107.845 23.9072 106.827 24.6711 105.243 24.5488C102.32 24.3121 101.539 21.5165 101.761 18.6751Z" fill="white"></path><path d="M115.521 14.749L117.075 15.0927L115.024 24.2815L120.419 25.4807L120.121 26.8021L113.172 25.2592L115.521 14.749Z" fill="white"></path><path d="M124.949 24.2971L127.421 17.7817L128.906 18.347L126.434 24.8623C125.753 26.6497 126.067 27.4975 127.482 28.0322C128.898 28.5669 129.694 28.1315 130.375 26.3442L132.847 19.8288L134.332 20.394L131.86 26.9094C130.873 29.514 129.334 30.2244 126.993 29.3383C124.651 28.4523 123.962 26.9017 124.949 24.2971Z" fill="white"></path><path d="M140.928 25.1599L137.744 23.4032L138.402 22.2192L146.185 26.5195L145.527 27.7035L142.313 25.9238L137.744 34.1654L136.352 33.4016L140.928 25.1599Z" fill="white"></path><path d="M150.103 29.147L155.705 33.3785L154.886 34.4632L150.555 31.194L148.596 33.7834L152.361 36.6324L151.542 37.717L147.777 34.8756L145.688 37.633L150.019 40.9022L149.2 41.9868L143.599 37.7552L150.103 29.147Z" fill="white"></path><path d="M159.892 37.0449L161.392 38.5496L157.221 47.4481L159.295 45.1491L163.649 40.8258L164.66 41.8417L157.007 49.4341L155.507 47.9294L159.678 39.0309L157.604 41.33L153.249 45.6532L152.239 44.6373L159.892 37.0449Z" fill="white"></path><path d="M170.728 57.7139L178.343 58.9283L175.236 65.9708L167.621 64.7563L170.728 57.7139Z" fill="white"></path><path d="M185.268 79.6431L185.934 82.7213C186.5 85.3335 185.812 87.3195 183.554 87.8083C181.297 88.2971 179.85 86.7924 179.284 84.1572L178.955 82.6296L175.067 83.4698L174.73 81.9193L185.268 79.6431ZM180.279 82.347L180.615 83.8975C181.044 85.8758 182.016 86.464 183.21 86.2119C184.388 85.9599 185.046 85.0127 184.618 83.0421L184.281 81.4915L180.279 82.347Z" fill="white"></path><path d="M187.702 94.5455L187.824 96.2565L177.332 100.801L177.21 99.0903L179.704 98.0515L179.414 93.8657L176.796 93.1859L176.682 91.5132L187.702 94.5455ZM180.73 94.156L180.967 97.5474L182.551 96.8828L186.117 95.485L182.391 94.599L180.73 94.156Z" fill="white"></path><path d="M188 104.529L187.885 106.11L178.48 105.453L178.09 110.96L176.735 110.868L177.233 103.788L188 104.529Z" fill="white"></path><path d="M186.844 116.436L186.4 118.491L182.627 118.926L180.156 119.14L182.329 120.332L185.589 122.287L185.161 124.288L174.607 122.02L174.914 120.622L181.089 121.951L183.997 122.715L178.288 119.339L178.549 118.147L185.145 117.414L182.184 116.91L176.008 115.581L176.306 114.183L186.844 116.436Z" fill="white"></path><path d="M174.508 137.495C177.584 139.168 178.824 141.406 177.431 143.957C176.046 146.493 173.574 146.646 170.544 144.996C167.467 143.323 166.243 141.093 167.636 138.549C169.021 136.013 171.5 135.861 174.508 137.495ZM171.286 143.522C172.885 144.392 175.112 145.34 176.245 143.262C177.378 141.184 175.373 139.832 173.773 138.962C172.197 138.106 169.97 137.151 168.83 139.237C167.697 141.314 169.702 142.666 171.286 143.522Z" fill="white"></path><path d="M164.989 146.004L163.412 148.12L169.886 152.932L171.463 150.816L172.55 151.626L168.463 157.11L167.376 156.3L168.945 154.2L162.471 149.388L160.902 151.488L159.815 150.679L163.91 145.194L164.989 146.004Z" fill="white"></path><path d="M164.697 161.464L163.58 162.586L156.884 155.957L152.989 159.875L152.024 158.92L157.037 153.879L164.697 161.464Z" fill="white"></path><path d="M144.065 172.425L142.902 180.025L135.831 176.969L136.994 169.362L144.065 172.425Z" fill="white"></path><path d="M121.1 179.482L119.585 179.818C119.241 178.627 118.284 178.13 116.738 178.474C115.322 178.787 114.511 179.558 114.748 180.62C114.932 181.437 115.56 181.689 116.585 181.819L119.026 182.117C120.396 182.285 121.636 182.85 121.98 184.378C122.393 186.242 120.993 187.594 118.919 188.052C116.792 188.526 115.085 187.831 114.588 185.669L116.08 185.333C116.486 186.807 117.611 186.929 118.659 186.7C120.021 186.395 120.61 185.623 120.419 184.76C120.258 184.05 119.677 183.714 118.751 183.607L116.31 183.309C114.481 183.087 113.532 182.537 113.21 181.101C112.728 178.955 114.259 177.641 116.447 177.152C118.835 176.618 120.633 177.374 121.1 179.482Z" fill="white"></path><path d="M109.567 182.469L110.103 189.412L108.519 189.534L107.983 182.591C107.838 180.689 107.187 180.047 105.687 180.162C104.18 180.276 103.644 181.01 103.789 182.912L104.333 189.862L102.748 189.985L102.205 183.041C101.991 180.261 103.078 178.97 105.58 178.779C108.075 178.581 109.353 179.688 109.567 182.469Z" fill="white"></path><path d="M98.4479 184.684C98.226 188.136 96.6266 190.176 93.7798 189.993C91.7365 189.863 90.2212 188.679 90.2748 186.005L91.8054 186.105C91.8589 187.716 92.4176 188.534 93.8104 188.625C96.2363 188.778 96.6878 186.456 96.8102 184.569C96.948 182.4 96.6725 180.368 94.4379 180.231C93.443 180.17 92.7543 180.506 92.1497 181.002L91.9967 183.386L94.5144 183.546L94.4302 184.86L90.382 184.608L90.7493 178.818L91.989 178.894L91.9125 180.078C92.2875 179.566 93.2976 178.787 94.8818 178.887C97.8128 179.055 98.6316 181.843 98.4479 184.684Z" fill="white"></path><path d="M82.262 188.289L80.5784 187.937L79.0479 176.618L80.7315 176.969L81.0529 179.65L85.17 180.506L86.5322 178.176L88.1776 178.52L82.262 188.289ZM84.5349 181.705L81.1983 181.01L81.4125 182.713L81.7952 186.517L83.6624 183.179L84.5349 181.705Z" fill="white"></path><path d="M72.5274 185.845L69.9026 184.89C67.293 183.943 66.0839 182.285 66.8185 180.276C67.4154 178.642 68.8312 177.977 70.3617 178.145L68.6781 172.982L70.5454 173.662L71.9994 178.459L73.3463 178.947L74.7161 175.182L76.2084 175.724L72.5274 185.845ZM72.8948 180.192L71.7469 179.772C69.8413 179.077 68.8235 179.581 68.4026 180.735C67.9894 181.865 68.4409 182.919 70.3464 183.614L71.4943 184.034L72.8948 180.192Z" fill="white"></path><path d="M53.8855 171.737L46.4776 173.868L46.2939 166.176L53.7018 164.045L53.8855 171.737Z" fill="white"></path><path d="M31.3717 158.08L29.4509 155.582C27.8209 153.459 27.5913 151.373 29.4279 149.968C31.2646 148.563 33.2084 149.304 34.8537 151.442L35.8103 152.687L38.9632 150.266L39.9275 151.526L31.3717 158.08ZM34.7313 153.512L33.767 152.252C32.535 150.648 31.4023 150.526 30.4305 151.267C29.4739 152 29.2825 153.13 30.5223 154.734L31.4865 155.995L34.7313 153.512Z" fill="white"></path><path d="M24.048 147.883L22.6781 145.454C21.316 143.04 21.4843 141.001 23.3516 139.947C24.8668 139.091 26.3821 139.519 27.4305 140.634L29.5273 135.624L30.5069 137.357L28.4789 141.94L29.183 143.185L32.6879 141.222L33.4685 142.605L24.048 147.883ZM28.0198 143.835L27.4228 142.773C26.428 141.008 25.326 140.726 24.2623 141.329C23.2138 141.917 22.8618 143.017 23.8567 144.782L24.4536 145.843L28.0198 143.835Z" fill="white"></path><path d="M18.2468 136.754L15.7061 130.224L16.9688 129.735L18.9355 134.791L21.966 133.615L20.2594 129.215L21.5221 128.727L23.2287 133.126L26.4581 131.873L24.4914 126.817L25.7541 126.328L28.2948 132.859L18.2468 136.754Z" fill="white"></path><path d="M21.7066 123.762L21.3545 122.257C22.5484 121.906 23.0381 120.951 22.6785 119.408C22.3494 117.995 21.5765 117.193 20.5127 117.437C19.6939 117.628 19.4414 118.255 19.3266 119.278L19.0434 121.715C18.8904 123.082 18.3317 124.327 16.8012 124.678C14.9339 125.106 13.5717 123.716 13.0973 121.654C12.6075 119.53 13.2886 117.827 15.4466 117.307L15.791 118.797C14.314 119.217 14.2069 120.34 14.4441 121.379C14.7579 122.738 15.5385 123.319 16.3956 123.12C17.1073 122.96 17.4364 122.372 17.5358 121.447L17.819 119.011C18.0256 117.178 18.569 116.23 20.0077 115.902C22.1504 115.406 23.482 116.926 23.9871 119.102C24.561 121.478 23.8187 123.273 21.7066 123.762Z" fill="white"></path><path d="M11.6508 112.579L11.0615 105.598L12.4161 105.483L12.8752 110.891L16.12 110.616L15.722 105.911L17.0766 105.797L17.4745 110.502L20.9259 110.211L20.4667 104.804L21.8213 104.689L22.4105 111.678L11.6508 112.579Z" fill="white"></path><path d="M11 100.045L11.1531 97.2645C11.3061 94.4995 12.5459 92.8649 14.6886 92.9871C16.4258 93.0864 17.4742 94.2551 17.7497 95.7598L22.2189 92.6587L22.1041 94.6446L17.9257 97.4173L17.8492 98.8456L21.8592 99.0671L21.7674 100.648L11 100.045ZM16.5329 98.7692L16.6018 97.5471C16.7166 95.523 15.936 94.6981 14.7116 94.6293C13.5101 94.5606 12.6224 95.2939 12.5076 97.318L12.4387 98.5401L16.5329 98.7692Z" fill="white"></path><path d="M11.8652 88.7784L12.202 87.1132L18.3012 86.3723L21.9209 86.0057L18.745 84.3176L13.3652 81.27L13.6942 79.6431L23.528 85.471L23.1836 87.1896L11.8652 88.7784Z" fill="white"></path><path d="M15.8438 72.9215L16.4177 71.3022L27.8585 71.3252L27.2846 72.9445L24.5832 72.8986L23.1751 76.8552L25.3025 78.5203L24.7362 80.1015L15.8438 72.9215ZM22.0807 76.0608L23.221 72.8604L21.4991 72.8375L17.6728 72.6924L20.7338 74.9915L22.0807 76.0608Z" fill="white"></path><path d="M22.005 61.9687L20.3138 65.1768L19.1123 64.5428L23.2524 56.6831L24.4539 57.3171L22.7474 60.5633L31.0965 64.9476L30.3542 66.3531L22.005 61.9687Z" fill="white"></path><path d="M33.438 58.2488L34.9839 56.1101L28.4408 51.3897L26.895 53.5284L25.793 52.734L29.8107 47.1963L30.9126 47.9907L29.3744 50.1141L35.9175 54.8345L37.4557 52.7111L38.5501 53.5054L34.5324 59.0431L33.438 58.2488Z" fill="white"></path><path d="M32.627 43.698L33.8131 42.4759L39.3537 45.134L42.6061 46.7762L40.846 43.6446L37.9609 38.1833L39.1165 36.9917L44.2438 47.1963L43.0194 48.4643L32.627 43.698Z" fill="white"></path><path d="M42.5137 34.0584L48.0542 29.7505L48.8884 30.8198L44.6029 34.1501L46.6002 36.7089L50.3271 33.814L51.1613 34.8834L47.4344 37.7782L49.5618 40.5051L53.8474 37.1748L54.6815 38.2442L49.1409 42.5521L42.5137 34.0584Z" fill="white"></path><path d="M55.9745 33.6384L57.3214 32.8669C58.0025 33.9057 59.0586 34.0967 60.4437 33.31C61.7064 32.592 62.2498 31.6143 61.7064 30.6748C61.2855 29.9415 60.6197 29.888 59.6019 30.0714L57.1837 30.5067C55.8291 30.7512 54.4746 30.5831 53.694 29.2235C52.7451 27.566 53.6864 25.8627 55.5307 24.8086C57.4209 23.724 59.2576 23.8921 60.3748 25.8016L59.0433 26.5578C58.2168 25.2669 57.1071 25.4884 56.1735 26.0155C54.9644 26.7106 54.6277 27.6271 55.0639 28.391C55.4235 29.0173 56.0817 29.1701 57 29.002L59.4183 28.5666C61.232 28.2382 62.3033 28.4826 63.0303 29.7582C64.1247 31.6677 63.0533 33.3711 61.1095 34.4862C58.9897 35.7007 57.0459 35.5098 55.9745 33.6384Z" fill="white"></path><path d="M75.4971 20.8292L79.1168 13L85.7823 18.4766L82.1703 26.3057L75.4971 20.8292Z" fill="white"></path></g><defs><clipPath id="clip0"><rect width="177" height="177" fill="white" transform="translate(11 13)"></rect></clipPath></defs></svg> 