<?xml version="1.0" encoding="UTF-8"?> <svg xmlns="http://www.w3.org/2000/svg" xmlns:xlink="http://www.w3.org/1999/xlink" width="192.82" height="199.68" viewBox="0 0 192.82 199.68"><defs><clipPath id="clip-path"><rect x="64.67" y="60.61" width="64.56" height="81.22" style="fill:none"></rect></clipPath></defs><title>Asset 3</title><g id="Layer_2" data-name="Layer 2"><g id="Layer_1-2" data-name="Layer 1"><rect width="192.82" height="199.68" style="fill:none"></rect><g style="clip-path:url(#clip-path)"><path d="M71.66,105.74a5.29,5.29,0,0,0-.57-1.29,2.83,2.83,0,0,1-.32-1.51c0-.37.16-.63-.2-.86a3.35,3.35,0,0,0-.69-.25l-3.72-1.16a9.32,9.32,0,0,0,2.69,4.38,26.4,26.4,0,0,0,2.72,3.67,2.91,2.91,0,0,1-.26-1.12C71.29,107,71.75,106.37,71.66,105.74Z" style="fill:#fff"></path><path d="M66,99.43c1.46.45,2.93.89,4.38,1.36a2.43,2.43,0,0,1,1.32.79c.38.54.16,1,.19,1.65,0,1,.9,1.68.91,2.67,0,.6-.38,1.12-.36,1.71a3.2,3.2,0,0,0,.64,1.49,10.13,10.13,0,0,0,5.19,3.7A25.93,25.93,0,0,0,86,114a3.18,3.18,0,0,0,2.76-1.21,7.14,7.14,0,0,0,1.08-2.13,9.83,9.83,0,0,1-3.26-3.06c-1.16-1.6-2.23-3.25-3.34-4.88a10.51,10.51,0,0,0-1.71-2.34,6.92,6.92,0,0,0-2.47-.94A17.88,17.88,0,0,0,76.46,99c-.73-.07-1.47,0-2.19-.18a2.33,2.33,0,0,1-2-2.31c0-1.1.63-2.11.66-3.2,0-.66-.42-.82-.78-1.31-.47-.64-.12-1.3-.11-2a22.07,22.07,0,0,0-.41-2.65c-.09-.74-.12-1.5-.14-2.25,0-3,.34-6.23-1.41-8.85-.41-.62.6-1.2,1-.58,1.91,2.85,1.5,6.37,1.57,9.62a16.89,16.89,0,0,0,.2,2.46,14.39,14.39,0,0,1,.34,2.25c0,.43-.27,1.09,0,1.43s.42.37.58.62a2.19,2.19,0,0,1,.33,1.28c0,1.06-.59,2-.65,3.08-.09,1.53,1.76,1.35,2.85,1.44a17.44,17.44,0,0,1,5,1.11c1.64.65,2.43,2.32,3.37,3.7s1.94,2.91,3,4.32a8.11,8.11,0,0,0,3.3,2.93.58.58,0,0,1,.27.65c-.64,2.16-1.92,4.42-4.45,4.62a22.07,22.07,0,0,1-4.21-.27,22.76,22.76,0,0,1-3.85-.74c-.43-.13-.86-.28-1.28-.44a30.18,30.18,0,0,0,6,2.92c7.45,2.69,16.8,1.4,23.51-2.73a32.15,32.15,0,0,0,12.74-15.16l-.13,0-.79-.1a1.4,1.4,0,0,1-1.16-.77,4.51,4.51,0,0,1-.83-3.67c.66-2.07,2.89-2.9,4.68-3.79a.59.59,0,0,1,.36-.06,27.39,27.39,0,0,0-.67-9.49,10.28,10.28,0,0,0-2.44-6.2c0-.08-.07-.15-.11-.22-.37-.65-.77-1.25-1.19-1.85a21.24,21.24,0,0,0-1.78-2.19,25.65,25.65,0,0,0-16.43-7.67c0,.07.06.1.07.17a.31.31,0,0,0,0,.09,17.85,17.85,0,0,0-2.42-.5,9.53,9.53,0,0,0-4.06.31A30,30,0,0,0,81.91,66a25.13,25.13,0,0,0-8.72,5.63,28.75,28.75,0,0,0-8,15.88,11.51,11.51,0,0,0-.48,3.18,13.66,13.66,0,0,0,.14,1.81,10.07,10.07,0,0,0,0,1.9,14.31,14.31,0,0,0,.88,3.92c.07.37.13.75.19,1.11A.51.51,0,0,1,66,99.43Zm40.34-13a15.57,15.57,0,0,1,1,2.81,26.2,26.2,0,0,1,.77,3.29,14.51,14.51,0,0,1-.09,5.61c-.38,1.59-1.2,3.81-2.95,4.35s-3.43-.77-4.46-2.07a15,15,0,0,0-1.81-2.09A10.31,10.31,0,0,0,96.45,97c-1.49-.7-3.59-1.6-3.9-3.41a6.84,6.84,0,0,1,.37-2.75,9.31,9.31,0,0,1,.84-2.16A4.33,4.33,0,0,1,95.33,87c.81-.45,1.77-.49,2.61-.88,1.52-.71,3-1.94,4.74-1.73a4.26,4.26,0,0,1,1.59.17A3.69,3.69,0,0,1,106.37,86.46ZM78.81,68.16c-.07-.73,1.1-.73,1.17,0,.21,2.18-.8,4.26-.61,6.42a19,19,0,0,0,1.11,3.32,17,17,0,0,1,.46,3.26,16.88,16.88,0,0,0,.36,2.93c.1.4.26.91.77.88a4.07,4.07,0,0,0,1.13-.33,6.54,6.54,0,0,0,3.52-3.32c.69-1.51.74-3.54,2.53-4.26a3,3,0,0,1,2.4.27,2.54,2.54,0,0,0,2.42-.16A15.5,15.5,0,0,1,96.29,76a6.34,6.34,0,0,1,2.81-.16c2.24.24,4.47.49,6.71.72a6.68,6.68,0,0,0,3-.19,7.17,7.17,0,0,0,1.9-1.22,11,11,0,0,1,3.83-2.55.58.58,0,0,1,.31,1.11c-1.79.52-3,2.13-4.46,3.13-2,1.33-4.31.91-6.59.67l-3.48-.38A11.3,11.3,0,0,0,97,77c-1.67.36-2.89,2-4.72,1.72-.83-.11-1.76-.93-2.6-.62s-1.25,1.59-1.5,2.45a7.83,7.83,0,0,1-2.82,4.16c-1.06.8-3.39,2.13-4.58,1A3.88,3.88,0,0,1,80,83.35c-.14-1-.18-2.09-.28-3.13A10.83,10.83,0,0,0,78.88,77a7.09,7.09,0,0,1-.71-2.85C78.17,72.09,79,70.18,78.81,68.16Z" style="fill:#fff"></path><path d="M117.85,94.25c-.46,1,.1,2.09.64,3l.1.17.19,0c.15,0,.31,0,.46.06a4.9,4.9,0,0,1,.74.11,30.48,30.48,0,0,0,1.55-6.08c-.63.31-1.26.62-1.87,1A3.84,3.84,0,0,0,117.85,94.25Z" style="fill:#fff"></path><path d="M103,85.56a.62.62,0,0,1-.24,0h-.11c-.41,0-.83.1-1.23.16h-.14c-1.07.35-2,1.12-3.06,1.55a16.4,16.4,0,0,0-2.42.82,3.68,3.68,0,0,0-1.31,1.68,11.14,11.14,0,0,0-.61,2,2.43,2.43,0,0,0,.24,2.33c1,1.17,2.69,1.64,4,2.34a8,8,0,0,1,1.93,1.37,22.64,22.64,0,0,1,1.46,1.78c.82,1,2.45,2.59,3.83,1.48a5,5,0,0,0,1.3-2.17,9.76,9.76,0,0,0,.54-2.27,15.83,15.83,0,0,0-.32-4.9,19.46,19.46,0,0,0-1.42-4.6,2.67,2.67,0,0,0-1.66-1.54A3.48,3.48,0,0,0,103,85.56Z" style="fill:#fff"></path><path d="M129.1,83.87a49.79,49.79,0,0,0-.87-5.24c-.09-.48-.14-1.08-.27-1.6s-.38-1.29-.61-1.92a41.49,41.49,0,0,0-4-8.22c-.15-.23-.31-.47-.48-.69q1.77-2,3.51-4.09c.71-.84-.44-2-1.25-1.23q-4.81,4.73-9.6,9.47a23.61,23.61,0,0,1,1.78,2.19c1.37-1.53,2.73-3.08,4.08-4.62.59,1.07,1.18,2.15,1.74,3.24a1.06,1.06,0,0,0,.11.21,1.15,1.15,0,0,0,.48.41c.27.55.54,1.1.79,1.66a27.35,27.35,0,0,1,1.44,3.91c.07.24.13.49.18.74l.06.32s0,.18,0,.23c.08.86.37,1.72.52,2.58a34.56,34.56,0,0,1-2.56,19.85,38.4,38.4,0,0,1-12.8,15.87,25,25,0,0,1-7.44,3.68A36.34,36.34,0,0,1,75.27,117c-.46-.3-.92-.61-1.36-.93,1-.86,1.93-1.73,2.89-2.6a12.47,12.47,0,0,1-2.38-1.37c-2.41,2.51-4.83,5-7.23,7.52a.76.76,0,0,0,0,1.19.83.83,0,0,0,1.25,0l3.93-3.43A35.71,35.71,0,0,0,92.19,124c1.09,0,2.2,0,3.32,0a87.35,87.35,0,0,0,1.38,14.88q-6.08.29-12.13.85l-.06,0-.1,0-.07,0a.34.34,0,0,0-.12.09l0,0a.48.48,0,0,0,0,.61.39.39,0,0,0,.3.18,58.51,58.51,0,0,0,27.05-1.16.5.5,0,0,0-.13-1q-6.35-.06-12.68.2a1,1,0,0,0,.07-.36c.06-4.89,0-9.79-.33-14.67a29.3,29.3,0,0,0,11.43-3.61A39.71,39.71,0,0,0,124.7,104.6,37.76,37.76,0,0,0,129.1,83.87Z" style="fill:#fff"></path></g></g></g></svg> 